<svg width="40" height="40" viewBox="0 0 40 40" fill="none" xmlns="http://www.w3.org/2000/svg">
<path fill-rule="evenodd" clip-rule="evenodd" d="M10.4999 0.916504C5.20725 0.916504 0.916626 5.20708 0.916626 10.4998C0.916626 15.7925 5.20725 20.0832 10.4999 20.0832C15.7927 20.0832 20.0833 15.7926 20.0833 10.4998C20.0833 5.20708 15.7927 0.916504 10.4999 0.916504ZM10.4999 18.1665C6.27257 18.1665 2.83331 14.7272 2.83331 10.4998C2.83331 6.2724 6.27253 2.83319 10.4999 2.83319C14.7274 2.83319 18.1666 6.2724 18.1666 10.4998C18.1666 14.7272 14.7274 18.1665 10.4999 18.1665ZM11.7 6.6665C11.7 7.36136 11.1941 7.86444 10.5097 7.86444C9.79764 7.86444 9.30412 7.36131 9.30412 6.65321C9.30412 5.97264 9.81098 5.46862 10.5097 5.46862C11.1941 5.46862 11.7 5.97264 11.7 6.6665ZM9.54374 9.5415H11.4604V15.2915H9.54374V9.5415Z" fill="#87C9C5"/>
</svg>
