<svg width="158" height="60" viewBox="0 0 158 60" fill="none" xmlns="http://www.w3.org/2000/svg">
    <path fill-rule="evenodd" clip-rule="evenodd" d="M25.0988 9.45136C25.8089 9.37766 27.8291 9.39609 28.6126 9.4882C29.9104 9.64174 30.5287 9.85054 31.3796 10.4094C32.5427 11.1893 33.3508 12.3869 33.6385 13.7687C33.7181 14.1494 33.7609 14.8004 33.712 14.8004C33.6997 14.8004 33.5283 14.7451 33.3263 14.6776C32.1142 14.26 30.4859 14.2722 29.2003 14.7083C28.9554 14.7942 28.7473 14.8557 28.7412 14.8434C28.7351 14.8372 28.6555 14.567 28.5637 14.2477C28.0433 12.4114 26.8251 10.7963 25.1661 9.74L24.7621 9.4882L25.0988 9.45136ZM20.3851 10.9375C22.944 10.6366 25.4049 12.2026 26.2374 14.6591C26.4088 15.175 26.6047 16.3173 26.5374 16.391C26.5251 16.4033 26.2435 16.3418 25.913 16.2497C23.4827 15.611 20.8442 15.6295 18.4568 16.3173C15.1511 17.263 12.0903 19.6335 10.3884 22.5506C10.217 22.8454 10.064 23.0788 10.0518 23.0665C10.0395 23.0542 10.0885 22.7963 10.1619 22.5015C11.1537 18.2948 13.7309 14.6039 17.3549 12.2026C17.7589 11.9324 18.267 11.6254 18.4874 11.5148C19.0139 11.2446 19.8158 11.0051 20.3851 10.9375ZM28.227 17.9877L28.1657 17.8096H29.6411C31.0184 17.8096 31.1409 17.8157 31.3857 17.9386C31.7163 18.0982 31.8204 18.2518 32.1081 19.0071C32.2366 19.3449 32.3897 19.7564 32.457 19.9222L32.5733 20.2231L32.3713 20.1801C32.2183 20.1556 32.0469 20.0082 31.6673 19.609L31.1715 19.0686L30.29 19.0317C29.4819 19.001 29.3717 18.9826 29.0595 18.829C28.6922 18.6509 28.331 18.2825 28.227 17.9877ZM35.175 17.9079C35.3097 17.7727 36.3933 17.7666 36.4422 17.8956C36.4606 17.9447 36.4055 18.1965 36.3198 18.4544C36.2096 18.7922 36.1239 18.9396 36.026 18.9887C35.9096 19.0378 35.8729 19.1422 35.7872 19.5783C35.7015 20.0696 35.6158 20.2292 35.475 20.1863C35.3954 20.1617 35.0098 18.3132 35.0465 18.1351C35.0649 18.0614 35.1199 17.957 35.175 17.9079ZM21.0156 18.1842C22.1726 18.0491 23.5623 18.1289 24.7866 18.3992C25.8518 18.6387 25.8395 18.5895 24.9519 19.0563C23.4337 19.8485 22.2828 20.696 21.0524 21.9242C19.6934 23.2814 18.818 24.4851 17.9609 26.1924C17.1039 27.8997 16.6448 29.392 16.3326 31.4432C16.204 32.2722 16.2285 34.9805 16.3693 35.8956C16.6019 37.4186 17.0549 38.9539 17.71 40.391C17.8997 40.8086 18.0344 41.1463 18.016 41.1463C17.9487 41.1463 16.8896 40.4278 16.3142 39.9856C15.5674 39.4145 14.2941 38.1863 13.639 37.4002C12.2678 35.7605 11.3557 33.8935 10.9516 31.8976C10.7619 30.958 10.719 29.1156 10.8598 28.1269C11.2149 25.6458 12.2617 23.4841 13.9574 21.7216C14.343 21.3162 14.8817 20.8127 15.1511 20.5977C16.8162 19.2958 18.9282 18.4299 21.0156 18.1842ZM34.3425 21.4268C34.4282 21.4022 35.0404 21.3838 35.7076 21.3899C36.9075 21.4022 36.9258 21.4022 37.0421 21.5496C37.2319 21.7768 37.1829 21.9365 36.7544 22.5384L36.3443 23.1095L36.4545 24.4729L36.9564 24.7799C37.238 24.9457 37.4768 25.1177 37.489 25.1607C37.5196 25.2344 37.3911 25.8485 37.3176 25.9652C37.2197 26.1248 36.9626 26.0266 36.4545 25.6397C36.1055 25.3756 35.8729 25.2405 35.7627 25.2405C35.6587 25.2405 34.9363 25.6213 33.8528 26.2538C32.8917 26.8065 32.0714 27.2671 32.0285 27.2671C31.8204 27.2671 30.7185 26.3459 30.1736 25.7011C29.7635 25.2221 29.6594 24.9826 29.837 24.915C29.8859 24.8966 30.3512 25.0993 30.8715 25.3695C31.3919 25.6335 31.8816 25.8546 31.9673 25.8546C32.102 25.8546 34.9547 24.5711 35.1138 24.436C35.1567 24.4053 35.2057 24.1658 35.224 23.9017C35.2485 23.6438 35.2791 23.3551 35.2975 23.263C35.3281 23.1218 35.2669 23.0481 34.7159 22.6059C34.3119 22.2743 34.0854 22.0471 34.0609 21.9427C34.0058 21.7339 34.1466 21.4821 34.3425 21.4268ZM24.0887 22.3664C24.456 22.09 24.7927 21.8628 24.8233 21.8628C24.86 21.8628 24.9274 22.0471 24.9702 22.2743C25.111 22.9805 25.5702 24.3132 25.9558 25.0931C26.6353 26.4872 27.7678 27.9918 28.8269 28.9068C29.0656 29.1218 29.6288 29.5639 30.0757 29.9017C31.0674 30.6448 31.7469 31.2712 32.3897 32.0512C34.0364 34.0164 35.0649 36.393 35.3832 38.9662C35.4872 39.7707 35.4689 41.4227 35.3526 42.2518C35.0159 44.6223 34.0425 46.8884 32.5795 48.7062C32.1816 49.2037 30.6389 50.7267 30.5348 50.7267C30.5042 50.7267 30.492 50.6776 30.5103 50.6161C30.6267 50.2354 30.8654 48.829 30.9511 48.0245C31.0797 46.7594 31.0429 44.5425 30.8654 43.3879C30.2777 39.5803 28.631 36.0675 26.1762 33.3777L25.9007 33.0706L26.3354 33.8383C28.833 38.2354 29.8002 43.3142 29.0779 48.2456C28.8881 49.523 28.7106 50.3029 28.2025 52.0164C28.1413 52.2252 28.1413 52.219 28.0005 51.6172C27.4005 48.9703 26.0293 46.5936 24.0704 44.782C22.846 43.652 22.0869 42.8966 21.689 42.4053C20.0239 40.3418 18.9465 37.7809 18.6404 35.1402C18.218 31.4984 19.2955 27.7216 21.5972 24.7861C22.1298 24.1044 23.348 22.9191 24.0887 22.3664ZM33.5834 28.4708C33.6385 28.3234 35.8178 28.3234 35.9403 28.4708C36.0076 28.5568 35.9953 28.7165 35.8239 29.5271C35.6464 30.4053 35.5607 30.6448 35.4444 30.6448C35.4199 30.6448 35.224 30.4299 35.0098 30.1719C34.7955 29.9079 34.3792 29.4411 34.0854 29.1279C33.7242 28.7472 33.5589 28.5322 33.5834 28.4708Z" fill="white"/>
    <path fill-rule="evenodd" clip-rule="evenodd" d="M47.4245 20.9785C47.449 20.96 48.0979 20.9477 48.8753 20.9539L50.2894 20.9723L50.3078 27.4022L50.32 33.8382H57.8497V36.3561H47.3816V28.6919C47.3816 24.4728 47.4 21.003 47.4245 20.9785ZM92.9268 22.0347V20.9293L96.1284 20.96C99.079 20.9846 99.3667 20.9969 99.8748 21.1136C101.032 21.3776 101.699 21.7093 102.379 22.3541C102.887 22.8393 103.211 23.3551 103.438 24.0429C103.591 24.4974 103.603 24.6141 103.603 25.5475C103.609 26.3459 103.585 26.6468 103.499 26.96C103.101 28.3602 102.14 29.3244 100.671 29.7789C99.8197 30.0429 99.2321 30.0921 96.6793 30.0921H94.2735V36.3561H92.9268V28.9928L96.312 28.9744C99.6177 28.9559 99.6973 28.9498 100.095 28.8147C101.124 28.4708 101.938 27.6171 102.201 26.6161C102.336 26.1003 102.33 25.0194 102.183 24.4974C101.87 23.3797 101.001 22.569 99.7402 22.219C99.2872 22.09 99.1096 22.0839 96.0978 22.0593L92.9268 22.0347ZM55.0949 31.5046V24.6878H57.8497V31.5046H55.0949ZM60.2371 36.3561V24.6878H62.9919V36.3561H60.2371ZM70.5215 24.7553C71.4214 24.6632 72.6518 24.786 73.4048 25.0501C74.2128 25.3265 74.9352 25.7993 75.5535 26.4564C76.5452 27.5127 77.0104 28.8577 77.0104 30.6755C77.0104 31.9713 76.7717 32.9907 76.2452 33.9303C75.376 35.4964 73.7231 36.4544 71.6907 36.5772C69.3584 36.7185 67.3688 35.7543 66.3343 33.9856C65.5201 32.5854 65.2813 30.4605 65.7527 28.7287C65.9241 28.0839 66.4261 27.1197 66.8424 26.6161C67.6933 25.5905 69.0523 24.9027 70.5215 24.7553ZM71.8744 26.8372C70.1481 26.5117 68.8135 27.482 68.434 29.3244C68.2932 30.0122 68.281 31.2896 68.4095 31.9774C68.6054 33.0092 69.2237 33.8935 70.0256 34.2804C70.3868 34.4524 70.5031 34.4769 71.1092 34.5015C71.6295 34.5199 71.8744 34.5015 72.1498 34.4216C73.0987 34.1514 73.7598 33.3899 74.0843 32.1862C74.2618 31.5353 74.2802 29.7727 74.1149 29.1709C73.7537 27.8874 72.9395 27.0399 71.8744 26.8372ZM79.3367 36.3561V24.6755L82.9056 24.7C86.346 24.7246 86.4868 24.7308 86.9581 24.8597C87.6132 25.044 88.0172 25.2466 88.4029 25.5967C88.7824 25.9344 89.0579 26.3582 89.2476 26.8679C89.5476 27.6724 89.5598 27.8628 89.5598 32.2476V36.3561H86.8112L86.7929 32.2845C86.7745 28.569 86.8088 28.2938 86.6643 27.9365C86.5162 27.5699 86.1323 27.15 85.9009 27.0296C85.7797 26.9662 85.6952 26.9331 85.4889 26.9046C85.1547 26.8583 83.8239 26.8495 83.8239 26.8495L82.1526 26.8311V36.3561H79.3367ZM109.161 24.7799C109.749 24.6448 111.188 24.6939 111.781 24.872C113.079 25.2466 114.089 26.1248 114.72 27.4206C115.197 28.3848 115.393 29.349 115.393 30.6755C115.387 33.8505 113.771 36.0614 111.151 36.479C110.569 36.5772 109.461 36.5281 108.935 36.3807C107 35.8526 105.641 34.2128 105.286 31.9651C105.164 31.1913 105.195 29.6806 105.341 28.9866C105.599 27.7522 106.045 26.8802 106.823 26.1003C107.533 25.3879 108.231 24.9948 109.161 24.7799ZM110.924 25.7932C108.702 25.4431 106.933 26.9416 106.541 29.4964C106.413 30.3193 106.456 31.6397 106.639 32.3336C107.043 33.8996 108.078 35.0481 109.394 35.3797C109.92 35.5086 110.875 35.4841 111.384 35.3244C112.571 34.9621 113.575 33.8014 113.955 32.3643C114.108 31.7871 114.151 29.9201 114.028 29.2569C113.753 27.7768 112.951 26.6345 111.812 26.0941C111.543 25.9651 111.145 25.83 110.924 25.7932ZM147.44 24.7492C147.789 24.7 148.389 24.7185 148.683 24.7922C148.811 24.8229 148.817 24.8536 148.817 25.4063V25.9836L148.34 25.9467C146.877 25.8178 145.714 26.4564 145.077 27.74L144.808 28.2804L144.789 32.3152L144.771 36.3561H143.553V24.9334H144.771L144.789 25.8055L144.808 26.6837L144.973 26.395C145.206 26.002 145.702 25.4738 146.051 25.2466C146.418 25.0133 146.957 24.8229 147.44 24.7492ZM135.778 24.872C136.458 24.6878 137.694 24.7308 138.38 24.958C139.004 25.1606 139.409 25.394 139.874 25.83C140.565 26.4749 141.055 27.4022 141.263 28.4953C141.312 28.7471 141.374 29.3367 141.392 29.7973L141.429 30.6448H133.25L133.287 31.3633C133.33 32.2415 133.446 32.7267 133.77 33.3961C134.205 34.2927 134.909 34.8577 135.944 35.1402C136.348 35.2507 136.642 35.2753 137.878 35.2998C138.766 35.3121 139.568 35.2998 139.923 35.2569C140.247 35.22 140.523 35.1954 140.535 35.2077C140.547 35.2261 140.541 35.4595 140.517 35.7297C140.48 36.1965 140.468 36.2272 140.315 36.2579C139.966 36.3439 137.033 36.3746 136.397 36.3009C133.924 36.0122 132.632 34.8945 132.16 32.6407C132.007 31.9283 131.946 30.3684 132.038 29.6315C132.338 27.1811 133.721 25.4247 135.778 24.872ZM137.627 25.8607C137.211 25.7748 136.446 25.7809 136.042 25.8792C135.166 26.0941 134.297 26.8188 133.838 27.7277C133.55 28.2988 133.483 28.4953 133.366 29.0972L133.281 29.5394H140.143L140.106 29.0481C140.064 28.5076 139.843 27.7707 139.592 27.3408C139.17 26.6161 138.374 26.0204 137.627 25.8607ZM116.465 25.2221L116.379 24.9273L117.677 24.9641L118.889 29.3858C119.556 31.8178 120.131 33.9979 120.174 34.2251C120.217 34.4524 120.272 34.6182 120.291 34.5936C120.315 34.569 120.382 34.348 120.444 34.1023C120.499 33.8567 121.16 31.7011 121.907 29.3121L123.266 24.9641H124.361L125.714 29.3121C126.461 31.7011 127.135 33.9058 127.208 34.2128C127.282 34.5138 127.355 34.7533 127.367 34.7471C127.373 34.7348 127.453 34.4216 127.539 34.0532C127.624 33.6786 128.2 31.4861 128.818 29.1709L129.944 24.9641L130.599 24.9457C131.23 24.9273 131.254 24.9334 131.218 25.0501C131.199 25.1177 130.465 27.6356 129.589 30.6571C128.714 33.6724 127.985 36.1903 127.967 36.2456C127.937 36.3377 127.857 36.3561 127.392 36.3561H126.847L126.657 35.7543C126.553 35.4288 125.886 33.3654 125.182 31.1791C124.472 28.9928 123.878 27.1074 123.859 26.9907C123.817 26.7328 123.749 26.7635 123.688 27.0583C123.657 27.2425 122.996 29.3367 120.835 36.1535L120.768 36.3561H119.685L119.562 35.9385C119.495 35.7113 118.791 33.2732 117.995 30.522C117.199 27.7707 116.507 25.3817 116.465 25.2221Z" fill="white"/>
</svg>
