<svg width="15" height="21" viewBox="0 0 15 21" fill="none" xmlns="http://www.w3.org/2000/svg">
    <circle cx="7.6" cy="10.5" r="3.2" stroke="#016553" stroke-width="0.5" stroke-linecap="round" stroke-dasharray="1 2"/>
    <path d="M0.791504 7.62484C0.791504 4.4625 0.791504 2.88133 1.77392 1.89892C2.75633 0.916504 4.3375 0.916504 7.49984 0.916504C10.6622 0.916504 12.2433 0.916504 13.2258 1.89892C14.2082 2.88133 14.2082 4.4625 14.2082 7.62484V13.3748C14.2082 16.5372 14.2082 18.1183 13.2258 19.1008C12.2433 20.0832 10.6622 20.0832 7.49984 20.0832C4.3375 20.0832 2.75633 20.0832 1.77392 19.1008C0.791504 18.1183 0.791504 16.5372 0.791504 13.3748V7.62484Z" stroke="#016553" stroke-linecap="round"/>
    <path d="M6.5415 17.2085H8.45817" stroke="#016553" stroke-linecap="round" stroke-linejoin="round"/>

    <path d="M4.625 0.916504L4.71029 1.42827C4.89514 2.53733 4.98756 3.09185 5.36789 3.42929C5.76463 3.78129 6.32714 3.7915 7.5 3.7915C8.67286 3.7915 9.23537 3.78129 9.63211 3.42929C10.0124 3.09185 10.1049 2.53732 10.2897 1.42827L10.375 0.916504" stroke="#016553" stroke-linejoin="round"/>
</svg>

