<svg width="31" height="14" viewBox="0 0 31 14" fill="none" xmlns="http://www.w3.org/2000/svg">
    <path d="M26.5 0C27.2913 0 28.8326 0.631169 28.9863 3.0918C29.1467 3.03328 29.3194 3 29.5 3C30.3284 3 31 3.67157 31 4.5V9.5C31 10.3284 30.3284 11 29.5 11C29.3244 11 29.1566 10.9676 29 10.9121V11.5C29 12.3333 28.5 14 26.5 14H3C2 14 0 13.4 0 11V3.5C0 2.33333 0.6 0 3 0H26.5Z" fill="#006555"/>
<!--    <path d="M6.53125 11.1094C6.01042 11.1094 5.54427 11.0117 5.13281 10.8164C4.72135 10.6185 4.39453 10.3477 4.15234 10.0039C3.91276 9.66016 3.78516 9.26693 3.76953 8.82422H5.17578C5.20182 9.15234 5.34375 9.42057 5.60156 9.62891C5.85938 9.83464 6.16927 9.9375 6.53125 9.9375C6.8151 9.9375 7.06771 9.8724 7.28906 9.74219C7.51042 9.61198 7.6849 9.43099 7.8125 9.19922C7.9401 8.96745 8.0026 8.70312 8 8.40625C8.0026 8.10417 7.9388 7.83594 7.80859 7.60156C7.67839 7.36719 7.5 7.18359 7.27344 7.05078C7.04688 6.91536 6.78646 6.84766 6.49219 6.84766C6.2526 6.84505 6.01693 6.88932 5.78516 6.98047C5.55339 7.07161 5.36979 7.19141 5.23438 7.33984L3.92578 7.125L4.34375 3H8.98438V4.21094H5.54297L5.3125 6.33203H5.35938C5.50781 6.15755 5.71745 6.01302 5.98828 5.89844C6.25911 5.78125 6.55599 5.72266 6.87891 5.72266C7.36328 5.72266 7.79557 5.83724 8.17578 6.06641C8.55599 6.29297 8.85547 6.60547 9.07422 7.00391C9.29297 7.40234 9.40234 7.85807 9.40234 8.37109C9.40234 8.89974 9.27995 9.37109 9.03516 9.78516C8.79297 10.1966 8.45573 10.5208 8.02344 10.7578C7.59375 10.9922 7.09635 11.1094 6.53125 11.1094ZM13.4922 11.1094C12.9714 11.1094 12.5052 11.0117 12.0938 10.8164C11.6823 10.6185 11.3555 10.3477 11.1133 10.0039C10.8737 9.66016 10.7461 9.26693 10.7305 8.82422H12.1367C12.1628 9.15234 12.3047 9.42057 12.5625 9.62891C12.8203 9.83464 13.1302 9.9375 13.4922 9.9375C13.776 9.9375 14.0286 9.8724 14.25 9.74219C14.4714 9.61198 14.6458 9.43099 14.7734 9.19922C14.901 8.96745 14.9635 8.70312 14.9609 8.40625C14.9635 8.10417 14.8997 7.83594 14.7695 7.60156C14.6393 7.36719 14.4609 7.18359 14.2344 7.05078C14.0078 6.91536 13.7474 6.84766 13.4531 6.84766C13.2135 6.84505 12.9779 6.88932 12.7461 6.98047C12.5143 7.07161 12.3307 7.19141 12.1953 7.33984L10.8867 7.125L11.3047 3H15.9453V4.21094H12.5039L12.2734 6.33203H12.3203C12.4688 6.15755 12.6784 6.01302 12.9492 5.89844C13.2201 5.78125 13.5169 5.72266 13.8398 5.72266C14.3242 5.72266 14.7565 5.83724 15.1367 6.06641C15.5169 6.29297 15.8164 6.60547 16.0352 7.00391C16.2539 7.40234 16.3633 7.85807 16.3633 8.37109C16.3633 8.89974 16.2409 9.37109 15.9961 9.78516C15.7539 10.1966 15.4167 10.5208 14.9844 10.7578C14.5547 10.9922 14.0573 11.1094 13.4922 11.1094Z" fill="white"/>-->
    <path fill-rule="evenodd" clip-rule="evenodd" d="M24.1688 4.21898C24.4278 3.89573 24.3757 3.42372 24.0524 3.16472C23.7292 2.90573 23.2571 2.95782 22.9981 3.28107L21.2556 5.45593C20.6794 6.17516 21.1504 7.12876 21.9428 7.29024L23.136 7.53337L21.4474 9.21929C21.1543 9.51196 21.154 9.98683 21.4466 10.28C21.7393 10.5731 22.2142 10.5734 22.5073 10.2808L24.6693 8.12208C25.3642 7.42825 24.9154 6.36515 24.0676 6.19239L22.7954 5.93314L24.1688 4.21898Z" fill="white"/>
</svg>
