<svg width="21" height="17" viewBox="0 0 21 17" fill="none" xmlns="http://www.w3.org/2000/svg">
    <path d="M6.6665 15.2084H11.4582C14.1687 15.2084 15.524 15.2084 16.3661 14.3663C17.2082 13.5242 17.2082 12.1689 17.2082 9.45836C17.2082 7.67263 17.2082 6.47511 16.9674 5.62505M4.27067 3.74512C3.06518 3.81275 2.30415 4.00485 1.75857 4.55043C0.916504 5.3925 0.916504 6.74779 0.916504 9.45836C0.916504 11.6086 0.916504 12.906 1.33689 13.7709" stroke="#016553" stroke-width="1.5" stroke-linecap="round"/>
    <path d="M17.2085 7.0625L18.1929 7.22657C18.8458 7.33538 19.1722 7.38979 19.4199 7.54804C19.6636 7.70371 19.8546 7.92922 19.9681 8.19515C20.0835 8.46548 20.0835 8.79643 20.0835 9.45833C20.0835 10.1202 20.0835 10.4512 19.9681 10.7215C19.8546 10.9874 19.6636 11.213 19.4199 11.3686C19.1722 11.5269 18.8458 11.5813 18.1929 11.6901L17.2085 11.8542" stroke="#016553" stroke-width="1.5" stroke-linecap="round"/>
    <path d="M3.82364 16.1668C3.3558 10.9918 7.62547 9.93766 9.54206 7.54183M9.57434 12.1756C12.0131 11.4943 13.5771 9.86332 14.1574 7.39649C14.8146 4.60267 13.6363 0.798292 10.5985 0.833742C10.5985 0.833742 10.9078 2.04062 10.6372 2.63172C9.63975 4.81112 6.1879 4.65973 5.06881 7.42387C4.40239 8.97051 4.80541 10.6984 6.0594 11.6894C6.84736 12.3122 8.40325 12.5028 9.57434 12.1756Z" stroke="#016553" stroke-width="1.5" stroke-linecap="round" stroke-linejoin="round"/>
</svg>
