<svg width="19" height="40" viewBox="0 0 19 40" fill="none" xmlns="http://www.w3.org/2000/svg">
    <mask id="mask0_6889_12379" style="mask-type:luminance" maskUnits="userSpaceOnUse" x="0" y="0" width="19" height="40">
        <path d="M0.651489 0.804199H19V39.6292H0.651489V0.804199Z" fill="white"/>
    </mask>
    <g mask="url(#mask0_6889_12379)">
        <mask id="mask1_6889_12379" style="mask-type:luminance" maskUnits="userSpaceOnUse" x="0" y="0" width="19" height="40">
            <path d="M6.18903 0.804199H13.3594C16.4147 0.804199 18.8969 3.30837 18.8969 6.40003V34.1042C18.8969 37.1959 16.4147 39.7 13.3594 39.7H6.18903C3.12957 39.7 0.651489 37.1959 0.651489 34.1042V6.40003C0.651489 3.30837 3.12957 0.804199 6.18903 0.804199Z" fill="white"/>
        </mask>
        <g mask="url(#mask1_6889_12379)">
            <path d="M6.18903 0.804199H13.3594C16.4147 0.804199 18.8969 3.30837 18.8969 6.40003V34.1042C18.8969 37.1959 16.4147 39.7 13.3594 39.7H6.18903C3.12957 39.7 0.651489 37.1959 0.651489 34.1042V6.40003C0.651489 3.30837 3.12957 0.804199 6.18903 0.804199Z" stroke="#006555" stroke-width="5"/>
        </g>
    </g>
    <mask id="mask2_6889_12379" style="mask-type:luminance" maskUnits="userSpaceOnUse" x="0" y="10" width="2" height="7">
        <path d="M0.0948486 10.0875H1.12566V16.9917H0.0948486V10.0875Z" fill="white"/>
    </mask>
    <g mask="url(#mask2_6889_12379)">
        <mask id="mask3_6889_12379" style="mask-type:luminance" maskUnits="userSpaceOnUse" x="0" y="10" width="2" height="7">
            <path d="M0.610257 10.0875C0.746324 10.0875 0.878269 10.1417 0.973104 10.2417C1.07206 10.3375 1.12566 10.4709 1.12566 10.6084V16.4709C1.12566 16.6084 1.07206 16.7375 0.973104 16.8375C0.878269 16.9334 0.746324 16.9875 0.610257 16.9875C0.474189 16.9875 0.342244 16.9334 0.243286 16.8375C0.148451 16.7375 0.0948486 16.6084 0.0948486 16.4709V10.6084C0.0948486 10.4709 0.148451 10.3375 0.243286 10.2417C0.342244 10.1417 0.474189 10.0875 0.610257 10.0875Z" fill="white"/>
        </mask>
        <g mask="url(#mask3_6889_12379)">
            <mask id="mask4_6889_12379" style="mask-type:luminance" maskUnits="userSpaceOnUse" x="-1" y="9" width="3" height="9">
                <path d="M1.5834 9.8667H-0.52771V17.3334H1.5834V9.8667Z" fill="white"/>
            </mask>
            <g mask="url(#mask4_6889_12379)">
                <mask id="mask5_6889_12379" style="mask-type:luminance" maskUnits="userSpaceOnUse" x="0" y="10" width="2" height="7">
                    <path d="M0.0948486 10.0875H1.12566V16.9917H0.0948486V10.0875Z" fill="white"/>
                </mask>
                <g mask="url(#mask5_6889_12379)">
                    <mask id="mask6_6889_12379" style="mask-type:luminance" maskUnits="userSpaceOnUse" x="0" y="10" width="2" height="7">
                        <path d="M0.610256 10.0875C0.746324 10.0875 0.878268 10.1417 0.973104 10.2417C1.07206 10.3375 1.12566 10.4709 1.12566 10.6084V16.4709C1.12566 16.6084 1.07206 16.7375 0.973104 16.8375C0.878268 16.9334 0.746324 16.9875 0.610256 16.9875C0.474189 16.9875 0.342244 16.9334 0.243286 16.8375C0.148451 16.7375 0.0948486 16.6084 0.0948486 16.4709V10.6084C0.0948486 10.4709 0.148451 10.3375 0.243286 10.2417C0.342244 10.1417 0.474189 10.0875 0.610256 10.0875Z" fill="white"/>
                    </mask>
                    <g mask="url(#mask6_6889_12379)">
                        <path d="M0.0948486 10.0875H1.12566V16.9875H0.0948486V10.0875Z" fill="#006555"/>
                    </g>
                </g>
            </g>
        </g>
    </g>
    <mask id="mask7_6889_12379" style="mask-type:luminance" maskUnits="userSpaceOnUse" x="8" y="15" width="3" height="13">
        <path d="M8.91858 15.0542H10.638V27.3334H8.91858V15.0542Z" fill="white"/>
    </mask>
    <g mask="url(#mask7_6889_12379)">
        <mask id="mask8_6889_12379" style="mask-type:luminance" maskUnits="userSpaceOnUse" x="8" y="15" width="3" height="13">
            <path d="M9.77622 15.0542C10.2504 15.0542 10.638 15.4459 10.638 15.925V26.4667C10.638 26.9459 10.2504 27.3334 9.77622 27.3334C9.30204 27.3334 8.91858 26.9459 8.91858 26.4667V15.925C8.91858 15.4459 9.30204 15.0542 9.77622 15.0542Z" fill="white"/>
        </mask>
        <g mask="url(#mask8_6889_12379)">
            <mask id="mask9_6889_12379" style="mask-type:luminance" maskUnits="userSpaceOnUse" x="7" y="14" width="5" height="15">
                <path d="M11.0833 14.1334H7.91663V28.0001H11.0833V14.1334Z" fill="white"/>
            </mask>
            <g mask="url(#mask9_6889_12379)">
                <mask id="mask10_6889_12379" style="mask-type:luminance" maskUnits="userSpaceOnUse" x="8" y="15" width="3" height="13">
                    <path d="M8.91858 15.0542H10.638V27.3334H8.91858V15.0542Z" fill="white"/>
                </mask>
                <g mask="url(#mask10_6889_12379)">
                    <mask id="mask11_6889_12379" style="mask-type:luminance" maskUnits="userSpaceOnUse" x="8" y="15" width="3" height="13">
                        <path d="M9.77622 15.0542C10.2504 15.0542 10.638 15.4459 10.638 15.925V26.4667C10.638 26.9459 10.2504 27.3334 9.77622 27.3334C9.30204 27.3334 8.91858 26.9459 8.91858 26.4667V15.925C8.91858 15.4459 9.30204 15.0542 9.77622 15.0542Z" fill="white"/>
                    </mask>
                    <g mask="url(#mask11_6889_12379)">
                        <path d="M8.91858 15.0542H10.638V27.3334H8.91858V15.0542Z" fill="#006555"/>
                    </g>
                </g>
            </g>
        </g>
    </g>
</svg>
