<svg width="17" height="24" viewBox="0 0 17 24" fill="none" xmlns="http://www.w3.org/2000/svg">
    <path d="M12.5 0C14.7091 0 16.5 1.79086 16.5 4V20C16.5 22.2091 14.7091 24 12.5 24H4.5C2.29086 24 0.5 22.2091 0.5 20V4C0.5 1.79086 2.29086 0 4.5 0H12.5ZM4.5 1C2.84315 1 1.5 2.34315 1.5 4V20C1.5 21.6569 2.84315 23 4.5 23H12.5C14.1569 23 15.5 21.6569 15.5 20V4C15.5 2.34315 14.1569 1 12.5 1H4.5Z" fill="#016553"/>
    <rect x="8.5" y="9" width="1" height="6" rx="0.5" fill="#016553"/>
    <path d="M0 5.75C0 5.33579 0.335786 5 0.75 5C1.16421 5 1.5 5.33579 1.5 5.75V10.25C1.5 10.6642 1.16421 11 0.75 11C0.335786 11 0 10.6642 0 10.25V5.75Z" fill="#016553"/>
</svg>
