<svg width="19" height="40" viewBox="0 0 19 40" fill="none" xmlns="http://www.w3.org/2000/svg">
    <g clip-path="url(#clip0_7000_1047)">
        <mask id="mask0_7000_1047" style="mask-type:luminance" maskUnits="userSpaceOnUse" x="0" y="0" width="19" height="40">
            <path d="M0.52951 0.436523H18.5795V39.4792H0.52951V0.436523Z" fill="white"/>
        </mask>
        <g mask="url(#mask0_7000_1047)">
            <mask id="mask1_7000_1047" style="mask-type:luminance" maskUnits="userSpaceOnUse" x="0" y="0" width="20" height="40">
                <path d="M7.17456 0.436523H12.3798C14.1412 0.436523 15.8334 1.13593 17.0753 2.38593C18.3222 3.63593 19.0248 5.33236 19.0248 7.09823V32.8869C19.0248 34.6528 18.3222 36.3492 17.0753 37.5992C15.8334 38.8492 14.1412 39.5486 12.3798 39.5486H7.17456C5.41311 39.5486 3.72092 38.8492 2.47404 37.5992C1.22717 36.3492 0.52951 34.6528 0.52951 32.8869V7.09823C0.52951 5.33236 1.22717 3.63593 2.47404 2.38593C3.72092 1.13593 5.41311 0.436523 7.17456 0.436523Z" fill="white"/>
            </mask>
            <g mask="url(#mask1_7000_1047)">
                <path d="M7.17456 0.436523H12.3798C14.1412 0.436523 15.8334 1.13593 17.0753 2.38593C18.3222 3.63593 19.0248 5.33236 19.0248 7.09823V32.8869C19.0248 34.6528 18.3222 36.3492 17.0753 37.5992C15.8334 38.8492 14.1412 39.5486 12.3798 39.5486H7.17456C5.41311 39.5486 3.72092 38.8492 2.47404 37.5992C1.22717 36.3492 0.52951 34.6528 0.52951 32.8869V7.09823C0.52951 5.33236 1.22717 3.63593 2.47404 2.38593C3.72092 1.13593 5.41311 0.436523 7.17456 0.436523Z" stroke="#006555" stroke-width="8"/>
            </g>
        </g>
        <mask id="mask2_7000_1047" style="mask-type:luminance" maskUnits="userSpaceOnUse" x="-1" y="9" width="3" height="8">
            <path d="M-0.0345612 9.77173H1.00945V16.7162H-0.0345612V9.77173Z" fill="white"/>
        </mask>
        <g mask="url(#mask2_7000_1047)">
            <mask id="mask3_7000_1047" style="mask-type:luminance" maskUnits="userSpaceOnUse" x="-1" y="9" width="3" height="8">
                <path d="M0.489918 9.77173C0.62846 9.77173 0.762053 9.82629 0.856064 9.9255C0.955022 10.0247 1.00945 10.1586 1.00945 10.2975V16.1904C1.00945 16.3293 0.955022 16.4582 0.856064 16.5574C0.762053 16.6567 0.62846 16.7112 0.489918 16.7112C0.351376 16.7112 0.217783 16.6567 0.118824 16.5574C0.0198659 16.4582 -0.0345612 16.3293 -0.0345612 16.1904V10.2975C-0.0345612 10.1586 0.0198659 10.0247 0.118824 9.9255C0.217783 9.82629 0.351376 9.77173 0.489918 9.77173Z" fill="white"/>
            </mask>
            <g mask="url(#mask3_7000_1047)">
                <mask id="mask4_7000_1047" style="mask-type:luminance" maskUnits="userSpaceOnUse" x="-2" y="9" width="4" height="8">
                    <path d="M1.26675 9.2063H-1.26659V16.8253H1.26675V9.2063Z" fill="white"/>
                </mask>
                <g mask="url(#mask4_7000_1047)">
                    <mask id="mask5_7000_1047" style="mask-type:luminance" maskUnits="userSpaceOnUse" x="-1" y="9" width="3" height="8">
                        <path d="M-0.0345612 9.77173H1.00945V16.7162H-0.0345612V9.77173Z" fill="white"/>
                    </mask>
                    <g mask="url(#mask5_7000_1047)">
                        <mask id="mask6_7000_1047" style="mask-type:luminance" maskUnits="userSpaceOnUse" x="-1" y="9" width="3" height="8">
                            <path d="M0.489919 9.77173C0.62846 9.77173 0.762053 9.82629 0.856064 9.9255C0.955022 10.0247 1.00945 10.1586 1.00945 10.2975V16.1904C1.00945 16.3293 0.955022 16.4582 0.856064 16.5574C0.762053 16.6567 0.62846 16.7112 0.489919 16.7112C0.351377 16.7112 0.217783 16.6567 0.118825 16.5574C0.0198662 16.4582 -0.0345612 16.3293 -0.0345612 16.1904V10.2975C-0.0345612 10.1586 0.0198662 10.0247 0.118825 9.9255C0.217783 9.82629 0.351377 9.77173 0.489919 9.77173Z" fill="white"/>
                        </mask>
                        <g mask="url(#mask6_7000_1047)">
                            <path d="M-0.0345612 9.77173H1.00945V16.7112H-0.0345612V9.77173Z" fill="#006555"/>
                        </g>
                    </g>
                </g>
            </g>
        </g>
        <mask id="mask7_7000_1047" style="mask-type:luminance" maskUnits="userSpaceOnUse" x="8" y="14" width="3" height="14">
            <path d="M8.91112 14.7668H10.6528V27.1131H8.91112V14.7668Z" fill="white"/>
        </mask>
        <g mask="url(#mask7_7000_1047)">
            <mask id="mask8_7000_1047" style="mask-type:luminance" maskUnits="userSpaceOnUse" x="8" y="14" width="3" height="14">
                <path d="M9.78195 14.7668C10.2619 14.7668 10.6528 15.1587 10.6528 15.6399V26.2401C10.6528 26.7212 10.2619 27.1131 9.78195 27.1131C9.302 27.1131 8.91112 26.7212 8.91112 26.2401V15.6399C8.91112 15.1587 9.302 14.7668 9.78195 14.7668Z" fill="white"/>
            </mask>
            <g mask="url(#mask8_7000_1047)">
                <mask id="mask9_7000_1047" style="mask-type:luminance" maskUnits="userSpaceOnUse" x="8" y="14" width="4" height="15">
                    <path d="M11.3999 14.2856H8.86659V28.2539H11.3999V14.2856Z" fill="white"/>
                </mask>
                <g mask="url(#mask9_7000_1047)">
                    <mask id="mask10_7000_1047" style="mask-type:luminance" maskUnits="userSpaceOnUse" x="8" y="14" width="3" height="14">
                        <path d="M8.91112 14.7668H10.6528V27.1131H8.91112V14.7668Z" fill="white"/>
                    </mask>
                    <g mask="url(#mask10_7000_1047)">
                        <mask id="mask11_7000_1047" style="mask-type:luminance" maskUnits="userSpaceOnUse" x="8" y="14" width="3" height="14">
                            <path d="M9.78195 14.7668C10.2619 14.7668 10.6528 15.1587 10.6528 15.6399V26.2401C10.6528 26.7212 10.2619 27.1131 9.78195 27.1131C9.302 27.1131 8.91112 26.7212 8.91112 26.2401V15.6399C8.91112 15.1587 9.302 14.7668 9.78195 14.7668Z" fill="white"/>
                        </mask>
                        <g mask="url(#mask11_7000_1047)">
                            <path d="M8.91112 14.7668H10.6528V27.1131H8.91112V14.7668Z" fill="#006555"/>
                        </g>
                    </g>
                </g>
            </g>
        </g>
    </g>
    <defs>
        <clipPath id="clip0_7000_1047">
            <rect width="19" height="40" fill="white"/>
        </clipPath>
    </defs>
</svg>
