<svg width="74" height="220" viewBox="0 0 74 220" fill="none" xmlns="http://www.w3.org/2000/svg">
    <g clip-path="url(#clip0_6496_1382)">
        <path d="M52.0198 0C64.1602 0 74 9.81595 74 21.9269V198.073C74 210.184 64.1602 220 52.0198 220H23.4455C11.3051 220 1.46535 210.184 1.46535 198.073V84.784C0.659406 84.784 0 84.1336 0 83.3223V59.2027C0 58.3987 0.659406 57.7409 1.46535 57.7409V21.9269C1.46535 9.81595 11.3051 0 23.4455 0H52.0198ZM23.4455 5.11628C14.1406 5.11628 6.59406 12.6445 6.59406 21.9269V198.073C6.59406 207.355 14.1406 214.884 23.4455 214.884H52.0198C61.3248 214.884 68.8713 207.355 68.8713 198.073V21.9269C68.8713 12.6445 61.3248 5.11628 52.0198 5.11628H23.4455ZM38.4653 82.5914C40.2897 82.5914 41.7624 84.0605 41.7624 85.8804V128.272C41.7624 130.092 40.2897 131.561 38.4653 131.561C36.641 131.561 35.1683 130.092 35.1683 128.272V85.8804C35.1683 84.0605 36.641 82.5914 38.4653 82.5914Z" fill="#016553"/>
        <path fill-rule="evenodd" clip-rule="evenodd" d="M39.0222 176.175C39.5131 176.124 40.9198 176.139 41.462 176.197C42.3632 176.3 42.7955 176.446 43.3816 176.826C44.1875 177.359 44.7517 178.178 44.9495 179.128C45.0081 179.391 45.0374 179.83 45.0008 179.83C44.9935 179.83 44.8762 179.793 44.7297 179.75C43.8871 179.464 42.7588 179.472 41.865 179.771C41.6964 179.83 41.5499 179.874 41.5499 179.866C41.5499 179.866 41.4913 179.676 41.4254 179.457C41.0663 178.2 40.2164 177.096 39.0661 176.373L38.7877 176.197L39.0222 176.175ZM35.7471 177.191C37.5202 176.987 39.2347 178.054 39.8061 179.735C39.9234 180.086 40.0626 180.868 40.0113 180.919C40.004 180.926 39.8061 180.882 39.579 180.824C37.8939 180.385 36.0622 180.4 34.4063 180.868C32.1131 181.518 29.9883 183.134 28.8087 185.136C28.6915 185.341 28.5816 185.494 28.5743 185.487C28.5669 185.48 28.5962 185.304 28.6475 185.1C29.3362 182.22 31.124 179.698 33.637 178.054C33.9155 177.871 34.2671 177.659 34.421 177.586C34.7873 177.403 35.3442 177.235 35.7398 177.191H35.7471ZM41.1909 182.015L41.1469 181.891H42.1727C43.1252 181.891 43.2131 181.891 43.3816 181.979C43.6087 182.088 43.682 182.191 43.8798 182.71C43.9677 182.944 44.0776 183.221 44.1216 183.338L44.2022 183.543L44.063 183.514C43.9604 183.499 43.8358 183.397 43.5721 183.119L43.2277 182.746L42.6123 182.724C42.0481 182.702 41.9749 182.688 41.7551 182.585C41.4986 182.461 41.2495 182.213 41.1762 182.008L41.1909 182.015ZM46.0119 181.957C46.1071 181.862 46.8545 181.862 46.8911 181.95C46.9057 181.986 46.8691 182.154 46.8032 182.33C46.7299 182.563 46.664 182.659 46.598 182.695C46.5174 182.732 46.4881 182.797 46.4295 183.097C46.3709 183.433 46.3123 183.543 46.2097 183.514C46.1511 183.499 45.8873 182.235 45.9093 182.11C45.924 182.059 45.9606 181.986 45.9972 181.957H46.0119ZM36.1867 182.147C36.9927 182.052 37.9525 182.11 38.8024 182.293C39.5424 182.454 39.5351 182.425 38.9196 182.746C37.8646 183.287 37.0659 183.864 36.216 184.705C35.2709 185.633 34.6628 186.459 34.0693 187.629C33.4758 188.798 33.1535 189.814 32.941 191.225C32.8531 191.795 32.8677 193.644 32.963 194.272C33.1242 195.31 33.4392 196.363 33.8935 197.35C34.0254 197.635 34.1206 197.868 34.1059 197.868C34.062 197.868 33.322 197.379 32.9263 197.072C32.4061 196.684 31.5269 195.844 31.0727 195.303C30.1202 194.177 29.4901 192.906 29.2044 191.539C29.0725 190.896 29.0432 189.639 29.1384 188.959C29.3875 187.263 30.1129 185.779 31.2852 184.573C31.5562 184.296 31.9299 183.952 32.1131 183.806C33.2707 182.914 34.736 182.322 36.1867 182.154V182.147ZM45.4404 184.369C45.499 184.354 45.924 184.34 46.3856 184.34C47.2208 184.347 47.2281 184.347 47.3087 184.449C47.4406 184.603 47.404 184.712 47.1109 185.129L46.8252 185.516L46.8984 186.452L47.2501 186.664C47.4479 186.773 47.6091 186.898 47.6164 186.927C47.6384 186.978 47.5505 187.395 47.4992 187.475C47.4333 187.585 47.2501 187.519 46.8984 187.256C46.6566 187.073 46.4955 186.985 46.4149 186.985C46.3416 186.985 45.8434 187.249 45.0887 187.68C44.422 188.06 43.8505 188.374 43.8212 188.374C43.6747 188.374 42.9127 187.746 42.5317 187.3C42.2459 186.971 42.1727 186.81 42.2972 186.759C42.3339 186.744 42.6562 186.883 43.0153 187.073C43.3743 187.256 43.7186 187.402 43.7772 187.402C43.8725 187.402 45.8507 186.525 45.9606 186.43C45.9899 186.408 46.0265 186.247 46.0339 186.064C46.0485 185.889 46.0705 185.692 46.0852 185.626C46.1071 185.531 46.0632 185.48 45.6822 185.173C45.4038 184.946 45.2426 184.793 45.2279 184.72C45.1913 184.573 45.2865 184.405 45.4257 184.369H45.4404ZM38.3261 185.012C38.5826 184.822 38.817 184.668 38.839 184.668C38.861 184.668 38.9123 184.793 38.9416 184.946C39.0368 185.429 39.3592 186.342 39.623 186.876C40.0919 187.833 40.8832 188.857 41.6158 189.485C41.7844 189.631 42.1727 189.938 42.4804 190.165C43.1691 190.676 43.638 191.1 44.085 191.634C45.2279 192.979 45.9386 194.601 46.1657 196.363C46.239 196.911 46.2244 198.044 46.1438 198.607C45.9093 200.229 45.2353 201.779 44.2168 203.021C43.9384 203.365 42.8687 204.403 42.7955 204.403C42.7735 204.403 42.7661 204.366 42.7808 204.33C42.8614 204.066 43.0299 203.109 43.0885 202.554C43.1764 201.691 43.1545 200.171 43.0299 199.381C42.6196 196.779 41.4766 194.375 39.7768 192.533L39.5863 192.321L39.8867 192.847C41.6232 195.859 42.2899 199.33 41.7917 202.707C41.6598 203.584 41.5353 204.118 41.1836 205.287C41.1396 205.433 41.1396 205.426 41.0444 205.017C40.6267 203.204 39.6743 201.581 38.3188 200.339C37.4689 199.564 36.9414 199.053 36.663 198.716C35.5054 197.306 34.758 195.552 34.5456 193.746C34.2525 191.254 34.9998 188.674 36.597 186.664C36.9634 186.196 37.8133 185.385 38.3261 185.012ZM44.9202 189.185C44.9568 189.083 46.4735 189.083 46.5541 189.185C46.598 189.244 46.5907 189.354 46.4735 189.909C46.3489 190.508 46.2903 190.676 46.2097 190.676C46.1951 190.676 46.0558 190.53 45.9093 190.355C45.7628 190.172 45.4697 189.858 45.2646 189.639C45.0155 189.375 44.8982 189.229 44.9129 189.193L44.9202 189.185Z" fill="#016553"/>
    </g>
    <defs>
        <clipPath id="clip0_6496_1382">
            <rect width="74" height="220" fill="white"/>
        </clipPath>
    </defs>
</svg>
