<svg width="22" height="38" viewBox="0 0 22 38" fill="none" xmlns="http://www.w3.org/2000/svg">
    <mask id="mask0_7000_1110" style="mask-type:luminance" maskUnits="userSpaceOnUse" x="0" y="0" width="22" height="38">
        <path d="M4.64062 0.414795H17.3498C19.8802 0.414795 21.9284 2.43637 21.9284 4.93389V33.0522C21.9284 35.5497 19.8802 37.5713 17.3498 37.5713H4.64062C2.11024 37.5713 0.0572891 35.5497 0.0572891 33.0522V4.93389C0.0572891 2.43637 2.11024 0.414795 4.64062 0.414795Z" fill="white"/>
    </mask>
    <g mask="url(#mask0_7000_1110)">
        <path d="M4.64062 0.414795H17.3498C19.8802 0.414795 21.9284 2.43637 21.9284 4.93389V33.0522C21.9284 35.5497 19.8802 37.5713 17.3498 37.5713H4.64062C2.11024 37.5713 0.0572891 35.5497 0.0572891 33.0522V4.93389C0.0572891 2.43637 2.11024 0.414795 4.64062 0.414795Z" stroke="#006555" stroke-width="6"/>
    </g>
</svg>
