<svg width="20" height="20" viewBox="0 0 20 20" fill="none" xmlns="http://www.w3.org/2000/svg">
    <g clip-path="url(#clip0_7000_1203)">
        <path d="M20 8.86812V11.1335C19.9891 11.157 19.974 11.1794 19.9672 11.204C19.8161 11.7789 19.4365 12.0967 18.8563 12.1791C18.412 12.2417 17.9661 12.2965 17.5203 12.3435C17.3854 12.3575 17.3177 12.4082 17.2719 12.5381C17.1792 12.801 17.0812 13.0655 16.9526 13.3113C16.8672 13.4741 16.8979 13.5753 17.0042 13.7052C17.276 14.0376 17.5365 14.3793 17.7969 14.7205C18.2333 15.2918 18.1943 15.9341 17.6891 16.448C17.2786 16.8659 16.8635 17.2797 16.4464 17.6908C15.9344 18.1953 15.2896 18.2334 14.7193 17.7952C14.3583 17.5176 13.9979 17.239 13.6411 16.9551C13.5552 16.8868 13.487 16.8722 13.3807 16.9218C13.0979 17.0522 12.8099 17.1732 12.5177 17.2807C12.4 17.324 12.3568 17.3845 12.3448 17.5025C12.3083 17.8515 12.2641 18.2 12.2182 18.5486C12.175 18.8767 12.15 19.208 11.9396 19.4903C11.7339 19.7663 11.45 19.9072 11.1323 20H8.86667C8.84323 19.9891 8.82083 19.9745 8.79635 19.9677C8.23906 19.8216 7.91458 19.4595 7.82865 18.8955C7.75885 18.439 7.70625 17.9799 7.65677 17.5212C7.64219 17.3871 7.59427 17.3183 7.46302 17.2713C7.18229 17.1701 6.90625 17.0543 6.6349 16.9296C6.52708 16.88 6.45312 16.8785 6.35729 16.9557C6.00208 17.2411 5.64167 17.5197 5.27917 17.7952C4.70417 18.2319 4.06198 18.1927 3.55156 17.6887C3.13438 17.2771 2.72031 16.8628 2.30833 16.4459C1.80312 15.9346 1.76458 15.2934 2.20365 14.7195C2.48438 14.3527 2.77292 13.9916 3.04844 13.6207C3.0875 13.568 3.1 13.4642 3.07708 13.4026C2.9625 13.0989 2.83854 12.7984 2.70208 12.5042C2.67135 12.4379 2.58437 12.3659 2.51458 12.3555C2.07083 12.2892 1.625 12.2375 1.17917 12.1848C0.829687 12.1436 0.511979 12.0231 0.302083 11.7346C0.172917 11.5556 0.0989583 11.3354 0 11.1335C0 10.3655 0 9.597 0 8.82899C0.0125 8.80812 0.0307292 8.78829 0.0369792 8.76586C0.199479 8.21385 0.571354 7.90289 1.13542 7.82359C1.57969 7.76098 2.025 7.70463 2.47135 7.65976C2.61719 7.64515 2.68281 7.58776 2.73125 7.45263C2.83229 7.17193 2.94948 6.89645 3.07448 6.62514C3.12187 6.52184 3.11979 6.45453 3.04792 6.36479C2.75937 6.00427 2.47656 5.63853 2.19635 5.27122C1.76719 4.7093 1.80833 4.06025 2.30417 3.55938C2.71615 3.14303 3.13125 2.72928 3.54687 2.31711C4.05885 1.80945 4.69896 1.76562 5.27292 2.20128C5.64062 2.48041 6.00573 2.76424 6.36719 3.05224C6.44896 3.11746 6.51198 3.1279 6.61042 3.08355C6.90052 2.95259 7.19375 2.82946 7.49167 2.71833C7.60208 2.67711 7.64062 2.61607 7.65312 2.50807C7.70417 2.0625 7.7625 1.61745 7.81667 1.17188C7.90417 0.450308 8.40677 0.0031739 9.13646 0.00213042C9.73542 0.00108693 10.3344 -0.00204353 10.9328 0.0031739C11.55 0.00839134 12.051 0.422134 12.1526 1.03049C12.2328 1.51101 12.2875 1.99623 12.3417 2.48093C12.3568 2.61607 12.4073 2.68233 12.5365 2.72876C12.8172 2.82998 13.0953 2.94216 13.3646 3.0705C13.4854 3.12842 13.5599 3.11277 13.6578 3.03398C14.0026 2.75694 14.3542 2.48824 14.7042 2.21745C15.2844 1.76875 15.9271 1.80162 16.4469 2.31189C16.8646 2.7225 17.2786 3.13677 17.6896 3.55468C18.1948 4.06808 18.2328 4.7093 17.7953 5.28165C17.5146 5.64896 17.2255 6.00949 16.95 6.37992C16.9109 6.43262 16.8979 6.53645 16.9214 6.59854C17.0359 6.90219 17.1599 7.20271 17.2964 7.49698C17.3271 7.56324 17.4141 7.63576 17.4839 7.6462C17.9276 7.71246 18.3734 7.76463 18.8193 7.81628C19.2141 7.8622 19.55 8.0182 19.7693 8.35733C19.8698 8.51229 19.9245 8.69699 20 8.86812ZM9.88021 14.1669C12.1323 14.2671 14.0589 12.452 14.1656 10.1302C14.2698 7.86898 12.4453 5.93227 10.1198 5.8347C7.86198 5.74027 5.93333 7.55698 5.83385 9.87091C5.73646 12.1384 7.54948 14.0631 9.88021 14.1664V14.1669Z" fill="black"/>
    </g>
    <defs>
        <clipPath id="clip0_7000_1203">
            <rect width="20" height="20" fill="white"/>
        </clipPath>
    </defs>
</svg>
