<svg width="21" height="21" viewBox="0 0 21 21" fill="none" xmlns="http://www.w3.org/2000/svg">
    <path d="M19.3694 5.83619L18.8963 5.01528C18.5386 4.39444 18.3597 4.08402 18.0554 3.96024C17.751 3.83645 17.4068 3.93413 16.7184 4.12948L15.549 4.45886C15.1095 4.56021 14.6484 4.50271 14.2471 4.29653L13.9243 4.11025C13.5802 3.88985 13.3155 3.56488 13.169 3.1829L12.8489 2.22707C12.6385 1.59455 12.5333 1.27829 12.2828 1.0974C12.0323 0.916504 11.6996 0.916504 11.0342 0.916504H9.96586C9.30043 0.916504 8.96772 0.916504 8.71724 1.0974C8.46675 1.27829 8.36154 1.59455 8.15111 2.22707L7.83107 3.1829C7.68456 3.56488 7.41987 3.88985 7.07575 4.11025L6.7529 4.29653C6.3516 4.50271 5.8905 4.56021 5.45101 4.45886L4.28161 4.12948C3.59321 3.93413 3.24901 3.83645 2.94466 3.96024C2.64032 4.08402 2.46145 4.39444 2.10371 5.01528L1.63069 5.83619C1.29536 6.41813 1.12769 6.70911 1.16023 7.01886C1.19278 7.32861 1.41723 7.57823 1.86615 8.07746L2.85423 9.18214C3.09572 9.48787 3.26718 10.0207 3.26718 10.4997C3.26718 10.979 3.09578 11.5117 2.85425 11.8174L1.86615 12.9221C1.41724 13.4214 1.19278 13.671 1.16024 13.9807C1.12769 14.2905 1.29536 14.5815 1.63069 15.1634L2.1037 15.9843C2.46143 16.6051 2.64032 16.9156 2.94466 17.0393C3.24901 17.1631 3.59322 17.0654 4.28163 16.8701L5.45096 16.5407C5.89054 16.4393 6.35173 16.4969 6.75308 16.7031L7.07587 16.8894C7.41992 17.1098 7.68455 17.4348 7.83104 17.8167L8.15111 18.7726C8.36154 19.4051 8.46675 19.7214 8.71724 19.9023C8.96772 20.0832 9.30043 20.0832 9.96586 20.0832H11.0342C11.6996 20.0832 12.0323 20.0832 12.2828 19.9023C12.5333 19.7214 12.6385 19.4051 12.8489 18.7726L13.169 17.8167C13.3155 17.4348 13.5801 17.1098 13.9242 16.8894L14.247 16.7031C14.6483 16.4969 15.1095 16.4393 15.5491 16.5407L16.7184 16.8701C17.4068 17.0654 17.751 17.1631 18.0554 17.0393C18.3597 16.9156 18.5386 16.6051 18.8964 15.9843L19.3694 15.1634C19.7047 14.5815 19.8724 14.2905 19.8398 13.9807C19.8073 13.671 19.5828 13.4214 19.1339 12.9221L18.1458 11.8174C17.9043 11.5117 17.7329 10.979 17.7329 10.4997C17.7329 10.0207 17.9043 9.48787 18.1458 9.18214L19.1339 8.07746C19.5828 7.57823 19.8073 7.32861 19.8398 7.01886C19.8724 6.70911 19.7047 6.41813 19.3694 5.83619Z" stroke="#016553" stroke-width="1.5" stroke-linecap="round"/>
    <path d="M12.4761 10.0207L12.9553 9.54143C13.3781 9.11866 13.5895 8.90728 13.867 8.995C14.1444 9.08273 14.1883 9.33364 14.276 9.83546C14.3137 10.0513 14.3333 10.2733 14.3333 10.4998C14.3333 12.6169 12.6171 14.3332 10.5 14.3332C9.99166 14.3332 9.50642 14.2342 9.06251 14.0545M8.58334 11.0127L8.06186 11.5341C7.6457 11.9503 7.43762 12.1584 7.16286 12.0751C6.8881 11.9919 6.83903 11.746 6.74088 11.2542C6.69221 11.0103 6.66667 10.7581 6.66667 10.4998C6.66667 8.38275 8.38291 6.6665 10.5 6.6665C11.0084 6.6665 11.4936 6.76546 11.9375 6.94515" stroke="#016553" stroke-width="1.5" stroke-linecap="round" stroke-linejoin="round"/>
</svg>
