<svg xmlns="http://www.w3.org/2000/svg" xmlns:xlink="http://www.w3.org/1999/xlink" width="60" zoomAndPan="magnify" viewBox="0 0 45 44.999999" height="60" preserveAspectRatio="xMidYMid meet" version="1.2"><defs><clipPath id="207ba316fb"><path d="M 2.554688 11.828125 L 42.304688 11.828125 L 42.304688 32.828125 L 2.554688 32.828125 Z M 2.554688 11.828125 "/></clipPath><clipPath id="f7b31d7bca"><path d="M 7.277344 13.214844 L 34.636719 13.214844 L 34.636719 30.464844 L 7.277344 30.464844 Z M 7.277344 13.214844 "/></clipPath><clipPath id="2e629b0392"><path d="M 9.527344 13.214844 L 32.328125 13.214844 C 33.570312 13.214844 34.578125 14.222656 34.578125 15.464844 L 34.578125 28.214844 C 34.578125 29.457031 33.570312 30.464844 32.328125 30.464844 L 9.527344 30.464844 C 8.285156 30.464844 7.277344 29.457031 7.277344 28.214844 L 7.277344 15.464844 C 7.277344 14.222656 8.285156 13.214844 9.527344 13.214844 Z M 9.527344 13.214844 "/></clipPath><clipPath id="09d489f51a"><path d="M 9.300781 13.570312 L 32.550781 13.570312 L 32.550781 31.421875 L 9.300781 31.421875 Z M 9.300781 13.570312 "/></clipPath></defs><g id="30b7819188"><g clip-rule="nonzero" clip-path="url(#207ba316fb)"><path style=" stroke:none;fill-rule:nonzero;fill:#4DAEA7;fill-opacity:1;" d="M 38.21875 27.089844 C 38.21875 28.035156 38.242188 28.792969 38.214844 29.550781 C 38.144531 31.589844 37.027344 32.789062 34.996094 32.796875 C 25.320312 32.824219 15.644531 32.820312 5.96875 32.792969 C 4.0625 32.789062 2.730469 31.609375 2.703125 29.734375 C 2.628906 24.835938 2.632812 19.933594 2.707031 15.035156 C 2.738281 13.074219 4.0625 11.859375 6.050781 11.855469 C 15.675781 11.828125 25.296875 11.828125 34.921875 11.859375 C 37.058594 11.871094 38.1875 13.15625 38.222656 15.371094 C 38.253906 17.488281 38.253906 17.515625 40.324219 17.648438 C 41.46875 17.71875 42.128906 18.28125 42.167969 19.355469 C 42.242188 21.3125 42.242188 23.273438 42.203125 25.234375 C 42.183594 26.402344 41.449219 27.003906 40.289062 27.082031 C 39.671875 27.125 39.054688 27.089844 38.21875 27.089844 Z M 19.453125 21.417969 C 18.613281 21.179688 17.972656 21.011719 17.34375 20.816406 C 15.144531 20.128906 12.953125 19.410156 10.742188 18.765625 C 10.300781 18.636719 9.777344 18.773438 9.292969 18.789062 C 9.566406 19.21875 9.742188 19.773438 10.125 20.0625 C 14.125 23.066406 18.152344 26.03125 22.179688 28.996094 C 22.445312 29.191406 22.765625 29.3125 23.375 29.632812 C 23.375 27.347656 23.375 25.34375 23.375 23.222656 C 25.722656 23.800781 27.796875 24.34375 29.890625 24.796875 C 30.371094 24.898438 30.921875 24.695312 31.441406 24.632812 C 31.164062 24.242188 30.964844 23.753906 30.601562 23.46875 C 27.273438 20.878906 23.921875 18.316406 20.570312 15.757812 C 20.308594 15.558594 19.972656 15.449219 19.453125 15.183594 C 19.453125 17.335938 19.453125 19.265625 19.453125 21.417969 Z M 19.453125 21.417969 "/></g><g clip-rule="nonzero" clip-path="url(#f7b31d7bca)"><g clip-rule="nonzero" clip-path="url(#2e629b0392)"><path style=" stroke:none;fill-rule:nonzero;fill:#4DAEA7;fill-opacity:1;" d="M 7.277344 13.214844 L 34.566406 13.214844 L 34.566406 30.464844 L 7.277344 30.464844 Z M 7.277344 13.214844 "/></g></g><g clip-rule="nonzero" clip-path="url(#09d489f51a)"><path style=" stroke:none;fill-rule:nonzero;fill:#ffffff;fill-opacity:1;" d="M 31.066406 19.945312 C 28.117188 25.257812 22.367188 26.851562 21.800781 27 C 17.398438 28.148438 13.792969 27.046875 12.074219 26.339844 C 11.664062 27.105469 11.324219 27.921875 11.050781 28.777344 C 10.773438 29.640625 10.570312 30.53125 10.453125 31.421875 L 9.300781 31.242188 C 10.15625 26.515625 13.25 22.046875 17.808594 20.277344 C 19.082031 19.765625 20.417969 19.480469 21.769531 19.296875 C 23.21875 19.085938 24.703125 19.078125 26.152344 19.273438 C 26.152344 19.273438 26.15625 19.273438 26.160156 19.273438 C 24.722656 19.078125 22.808594 18.832031 21.332031 19.039062 C 19.964844 19.222656 18.601562 19.5 17.285156 20.007812 C 15.027344 20.839844 13.148438 22.339844 11.667969 24.1875 C 11.773438 23.59375 11.929688 23.007812 12.128906 22.4375 C 12.957031 20.066406 14.207031 18.882812 14.914062 18.332031 C 18.5 15.53125 24.890625 15.910156 25.453125 15.949219 C 26.183594 16 27.125 16.117188 28.34375 15.78125 C 30.820312 15.097656 32.339844 13.570312 32.339844 13.570312 C 32.773438 13.824219 32.632812 17.117188 31.066406 19.945312 "/></g></g></svg>