<svg width="38" height="125" viewBox="0 0 38 125" fill="none" xmlns="http://www.w3.org/2000/svg">
<path opacity="0.2" d="M32.125 12.945C32.125 -4.315 5.875 -4.315 5.875 12.945V93.4433C2.78 96.6883 0.872498 101.096 0.872498 105.946C0.872498 115.956 8.9875 124.071 18.9975 124.071C29.0075 124.071 37.1225 115.956 37.1225 105.946C37.1225 101.096 35.2175 96.6908 32.115 93.4383L32.1225 93.4458L32.125 12.945ZM19 117.678C12.4425 117.678 7.125 112.361 7.125 105.803C7.125 102.291 8.65 99.1358 11.075 96.9608L11.085 96.9508C11.1075 96.9308 11.1175 96.9008 11.14 96.8783C11.2875 96.7208 11.42 96.5458 11.5325 96.3583L11.54 96.3433C11.6475 96.2108 11.75 96.0608 11.8375 95.9058L11.845 95.8908C11.895 95.7533 11.9375 95.5858 11.9675 95.4158L11.97 95.3983C12.0375 95.1958 12.0875 94.9608 12.11 94.7183V94.7058L12.1275 94.6233V12.945C12.125 12.8675 12.1225 12.775 12.1225 12.6825C12.1225 8.8825 15.2025 5.8025 19.0025 5.8025C22.8025 5.8025 25.8825 8.8825 25.8825 12.6825C25.8825 12.775 25.88 12.8675 25.8775 12.9575V12.945V94.6233C25.8775 94.6533 25.895 94.6808 25.895 94.7108C25.9175 94.9558 25.965 95.1808 26.035 95.3958L26.03 95.3733C26.0625 95.5708 26.1075 95.7458 26.1675 95.9158L26.16 95.8933C26.255 96.0633 26.3575 96.2108 26.4675 96.3483L26.4625 96.3433C26.5825 96.5458 26.715 96.7208 26.8625 96.8808L26.86 96.8783C26.8825 96.9008 26.89 96.9308 26.915 96.9508C29.35 99.1358 30.875 102.291 30.875 105.803C30.875 112.361 25.5575 117.678 19 117.678ZM22.125 98.3058V12.925C22.125 11.2 20.725 9.8 19 9.8C17.275 9.8 15.875 11.2 15.875 12.925V98.3058C12.915 99.5633 10.875 102.446 10.875 105.806C10.875 110.293 14.5125 113.931 19 113.931C23.4875 113.931 27.125 110.293 27.125 105.806C27.125 102.446 25.085 99.5633 22.1775 98.3258L22.125 98.3058Z" fill="#006555"/>
</svg>
