<svg width="40" height="40" viewBox="0 0 40 40" fill="none" xmlns="http://www.w3.org/2000/svg">
<path d="M7.62496 14.208C4.46262 14.208 2.88145 14.208 1.89904 13.2256C0.916626 12.2432 0.916626 10.662 0.916626 7.49967C0.916626 4.33734 0.916625 2.75617 1.89904 1.77375C2.88145 0.791341 4.46262 0.79134 7.62496 0.79134L13.375 0.79134C16.5373 0.79134 18.1185 0.79134 19.1009 1.77375C20.0833 2.75617 20.0833 4.33733 20.0833 7.49967C20.0833 10.662 20.0833 12.2432 19.1009 13.2256C18.1185 14.208 16.5373 14.208 13.375 14.208L7.62496 14.208Z" stroke="#87C9C5" stroke-width="1.5" stroke-linecap="round"/>
<path d="M17.2083 8.45801L17.2083 6.54134" stroke="#87C9C5" stroke-width="1.5" stroke-linecap="round" stroke-linejoin="round"/>
<path d="M0.916626 10.375L1.42839 10.2897C2.5853 10.0969 3.13847 9.99434 3.47195 9.58191C3.79163 9.18653 3.79163 8.62436 3.79163 7.5C3.79163 6.32714 3.78141 5.76463 3.42942 5.36789C3.09198 4.98756 2.53745 4.89514 1.42839 4.71029L0.916626 4.625" stroke="#87C9C5" stroke-width="1.5" stroke-linejoin="round"/>
</svg>
