<svg width="40" height="40" viewBox="0 0 40 40" fill="none" xmlns="http://www.w3.org/2000/svg">
<path d="M8.10413 0.916504V2.83317" stroke="#87C9C5" stroke-width="1.5" stroke-linecap="round" stroke-linejoin="round"/>
<path d="M12.8958 0.916504V2.83317" stroke="#87C9C5" stroke-width="1.5" stroke-linecap="round" stroke-linejoin="round"/>
<path d="M8.10413 18.1665V20.0832" stroke="#87C9C5" stroke-width="1.5" stroke-linecap="round" stroke-linejoin="round"/>
<path d="M12.8958 18.1665V20.0832" stroke="#87C9C5" stroke-width="1.5" stroke-linecap="round" stroke-linejoin="round"/>
<path d="M20.0833 12.8955L18.1666 12.8955" stroke="#87C9C5" stroke-width="1.5" stroke-linecap="round" stroke-linejoin="round"/>
<path d="M2.83325 8.104L0.916585 8.104" stroke="#87C9C5" stroke-width="1.5" stroke-linecap="round" stroke-linejoin="round"/>
<path d="M2.83325 12.8955L0.916585 12.8955" stroke="#87C9C5" stroke-width="1.5" stroke-linecap="round" stroke-linejoin="round"/>
<path d="M20.0833 8.104L18.1666 8.104" stroke="#87C9C5" stroke-width="1.5" stroke-linecap="round" stroke-linejoin="round"/>
<path d="M11.165 7.14551L9.16108 9.57712C8.94634 9.83769 9.10025 10.2126 9.45043 10.282L11.5496 10.6979C11.9229 10.7718 12.0653 11.1869 11.8043 11.4403L9.31798 13.8538" stroke="#87C9C5" stroke-width="1.5" stroke-linecap="round" stroke-linejoin="round"/>
<path d="M2.83325 10.4997C2.83325 6.88557 2.83325 5.07852 3.95601 3.95577C5.07877 2.83301 6.88582 2.83301 10.4999 2.83301C14.114 2.83301 15.9211 2.83301 17.0438 3.95577C18.1666 5.07852 18.1666 6.88557 18.1666 10.4997C18.1666 14.1138 18.1666 15.9208 17.0438 17.0436C15.9211 18.1663 14.114 18.1663 10.4999 18.1663C6.88582 18.1663 5.07877 18.1663 3.95601 17.0436C2.83325 15.9208 2.83325 14.1138 2.83325 10.4997Z" stroke="#87C9C5" stroke-width="1.5" stroke-linejoin="round"/>
</svg>
