<svg width="26" height="26" viewBox="0 0 26 26" fill="none" xmlns="http://www.w3.org/2000/svg">
    <circle cx="13" cy="13" r="13" fill="#4DAEA7"/>
    <circle cx="13" cy="13" r="12.5" stroke="black" stroke-opacity="0.1"/>
    <path d="M18.9532 8.61431C19.0972 9.00265 18.8992 9.43428 18.5109 9.57836C17.7168 9.87301 16.8455 10.4863 15.9635 11.2966C15.0899 12.0993 14.2481 13.0555 13.5095 13.983C12.7724 14.9087 12.1473 15.7941 11.7063 16.4486C11.4861 16.7755 11.3124 17.0438 11.1943 17.2295C11.1352 17.3224 11.0901 17.3945 11.0601 17.443L11.0265 17.4975L11.0184 17.5107L11.0166 17.5136C10.8788 17.7407 10.6309 17.8786 10.3653 17.8751C10.0996 17.8717 9.85562 17.728 9.72382 17.4973C9.01189 16.2514 8.42377 15.6905 8.0699 15.4428C7.89406 15.3197 7.77443 15.2727 7.72182 15.2559C7.7094 15.252 7.70027 15.2496 7.69454 15.2482C7.30622 15.2198 7 14.8958 7 14.5002C7 14.086 7.33579 13.7502 7.75 13.7502C7.8385 13.7562 8.04772 13.7798 8.17662 13.8265C8.38182 13.8918 8.63719 14.0089 8.9301 14.2139C9.34993 14.5078 9.8426 14.9792 10.3794 15.734L10.4623 15.6104C10.9189 14.9329 11.5677 14.0136 12.3361 13.0486C13.103 12.0855 13.9983 11.0652 14.9487 10.1921C15.8907 9.3266 16.9303 8.5649 17.9891 8.17204C18.3774 8.02796 18.8091 8.22596 18.9532 8.61431Z" fill="white"/>
</svg>
