<svg xmlns="http://www.w3.org/2000/svg" xmlns:xlink="http://www.w3.org/1999/xlink" width="60" zoomAndPan="magnify" viewBox="0 0 45 44.999999" height="60" preserveAspectRatio="xMidYMid meet" version="1.2"><defs><clipPath id="490ce87ec9"><path d="M 8.332031 3.1875 L 36.832031 3.1875 L 36.832031 41 L 8.332031 41 Z M 8.332031 3.1875 "/></clipPath></defs><g id="f6a896ae87"><g clip-rule="nonzero" clip-path="url(#490ce87ec9)"><path style=" stroke:none;fill-rule:nonzero;fill:#4DAEA7;fill-opacity:1;" d="M 22.390625 3.21875 C 8.332031 3.21875 8.476562 26.375 8.574219 36.007812 C 8.621094 40.238281 12.222656 41.40625 13.730469 38.828125 C 16.453125 34.207031 18.984375 37.417969 19.90625 38.488281 C 20.394531 39.023438 20.976562 40.144531 22.339844 40.144531 C 23.703125 40.144531 24.335938 39.023438 24.820312 38.488281 C 25.746094 37.417969 28.277344 34.257812 31 38.828125 C 32.507812 41.40625 36.109375 40.238281 36.15625 36.007812 C 36.300781 26.375 36.398438 3.21875 22.390625 3.21875 Z M 22.390625 3.21875 "/></g><path style=" stroke:none;fill-rule:nonzero;fill:#ffffff;fill-opacity:1;" d="M 20.101562 15.480469 C 20.101562 15.710938 20.082031 15.933594 20.035156 16.148438 C 19.992188 16.363281 19.929688 16.554688 19.847656 16.71875 C 19.765625 16.882812 19.667969 17.007812 19.5625 17.097656 C 19.453125 17.183594 19.34375 17.230469 19.226562 17.230469 C 19.109375 17.230469 19 17.183594 18.890625 17.097656 C 18.785156 17.007812 18.691406 16.882812 18.609375 16.71875 C 18.527344 16.554688 18.460938 16.363281 18.417969 16.148438 C 18.375 15.933594 18.351562 15.710938 18.351562 15.480469 C 18.351562 15.246094 18.375 15.023438 18.417969 14.808594 C 18.460938 14.59375 18.527344 14.40625 18.609375 14.242188 C 18.691406 14.074219 18.785156 13.949219 18.890625 13.859375 C 19 13.773438 19.109375 13.726562 19.226562 13.726562 C 19.34375 13.726562 19.453125 13.773438 19.5625 13.859375 C 19.667969 13.949219 19.765625 14.074219 19.847656 14.242188 C 19.929688 14.40625 19.992188 14.59375 20.035156 14.808594 C 20.082031 15.023438 20.101562 15.246094 20.101562 15.480469 Z M 20.101562 15.480469 "/><path style=" stroke:none;fill-rule:nonzero;fill:#ffffff;fill-opacity:1;" d="M 25.453125 15.480469 C 25.453125 15.710938 25.433594 15.933594 25.386719 16.148438 C 25.34375 16.363281 25.28125 16.554688 25.199219 16.71875 C 25.117188 16.882812 25.019531 17.007812 24.914062 17.097656 C 24.804688 17.183594 24.695312 17.230469 24.578125 17.230469 C 24.460938 17.230469 24.351562 17.183594 24.242188 17.097656 C 24.136719 17.007812 24.042969 16.882812 23.960938 16.71875 C 23.878906 16.554688 23.8125 16.363281 23.769531 16.148438 C 23.726562 15.933594 23.703125 15.710938 23.703125 15.480469 C 23.703125 15.246094 23.726562 15.023438 23.769531 14.808594 C 23.8125 14.59375 23.878906 14.40625 23.960938 14.242188 C 24.042969 14.074219 24.136719 13.949219 24.242188 13.859375 C 24.351562 13.773438 24.460938 13.726562 24.578125 13.726562 C 24.695312 13.726562 24.804688 13.773438 24.914062 13.859375 C 25.019531 13.949219 25.117188 14.074219 25.199219 14.242188 C 25.28125 14.40625 25.34375 14.59375 25.386719 14.808594 C 25.433594 15.023438 25.453125 15.246094 25.453125 15.480469 Z M 25.453125 15.480469 "/></g></svg>