<svg width="28" height="18" viewBox="0 0 28 18" fill="none" xmlns="http://www.w3.org/2000/svg">
<path d="M9 1.5C5.46447 1.5 3.6967 1.5 2.59835 2.59835C1.5 3.6967 1.5 5.46447 1.5 9C1.5 12.5355 1.5 14.3033 2.59835 15.4017C3.30998 16.1133 4.30262 16.3638 5.875 16.4521M14 16.4783L15.25 16.5C18.7855 16.5 20.5533 16.5 21.6517 15.4017C22.75 14.3033 22.75 12.5355 22.75 9C22.75 5.46447 22.75 3.6967 21.6517 2.59835C20.7675 1.71421 19.4496 1.54178 17.125 1.50815" stroke="white" stroke-width="1.5" stroke-linecap="round"/>
<path d="M13.4529 1.5L9.73962 7.04583C9.16457 7.90466 8.87705 8.33407 9.04986 8.66704C9.22267 9 9.73306 9 10.7538 9H12.2462C13.2669 9 13.7773 9 13.9501 9.33296C14.1229 9.66593 13.8354 10.0953 13.2604 10.9542L9.54711 16.5" stroke="white" stroke-width="1.5" stroke-linecap="round"/>
<path d="M22.75 5.875L24.034 6.089C24.8856 6.23094 25.3114 6.3019 25.6345 6.50832C25.9523 6.71136 26.2015 7.00551 26.3495 7.35236C26.5 7.70498 26.5 8.13665 26.5 9C26.5 9.86335 26.5 10.295 26.3495 10.6476C26.2015 10.9945 25.9523 11.2886 25.6345 11.4917C25.3114 11.6981 24.8856 11.7691 24.034 11.911L22.75 12.125" stroke="white" stroke-width="1.5" stroke-linecap="round"/>
</svg>
