<svg width="23" height="21" viewBox="0 0 23 21" fill="none" xmlns="http://www.w3.org/2000/svg">
<path d="M12.6 3.87946C12.6872 4.11327 12.6872 4.37066 12.6 4.60446C12.5482 4.7136 12.4808 4.81465 12.4 4.90446L9.0875 8.20446C8.72148 8.57003 8.12852 8.57003 7.7625 8.20446C7.39693 7.83844 7.39693 7.24548 7.7625 6.87946L9.4625 5.17946H6.7C4.45995 5.19303 2.64545 7.00196 2.625 9.24196V11.742C2.64545 13.982 4.45995 15.7909 6.7 15.8045C7.21777 15.8045 7.6375 16.2242 7.6375 16.742C7.6375 17.2597 7.21777 17.6795 6.7 17.6795C3.42444 17.6658 0.77053 15.0175 0.75 11.742V9.24196C0.77053 5.96644 3.42444 3.3181 6.7 3.30446H9.475L7.7625 1.60446C7.39693 1.23844 7.39693 0.645484 7.7625 0.279462C7.93661 0.100778 8.17552 0 8.425 0C8.67448 0 8.91339 0.100778 9.0875 0.279462L12.4 3.57946C12.4808 3.66927 12.5482 3.77032 12.6 3.87946Z" fill="white"/>
<path d="M15.7625 4.24194C15.7625 3.72418 16.1822 3.30444 16.7 3.30444C19.9755 3.31808 22.6295 5.96642 22.65 9.24194V11.7419C22.6295 15.0175 19.9755 17.6658 16.7 17.6794H13.925L15.6375 19.3794C16.003 19.7455 16.003 20.3384 15.6375 20.7044C15.2715 21.07 14.6785 21.07 14.3125 20.7044L11 17.4044C10.9152 17.3177 10.8474 17.216 10.8 17.1044C10.7128 16.8706 10.7128 16.6132 10.8 16.3794C10.8474 16.2679 10.9152 16.1661 11 16.0794L14.3125 12.7794C14.4866 12.6008 14.7255 12.5 14.975 12.5C15.2245 12.5 15.4634 12.6008 15.6375 12.7794C16.003 13.1455 16.003 13.7384 15.6375 14.1044L13.925 15.8044H16.7C18.94 15.7909 20.7545 13.9819 20.775 11.7419V9.24194C20.7545 7.00194 18.94 5.19301 16.7 5.17944C16.1822 5.17944 15.7625 4.75971 15.7625 4.24194Z" fill="white"/>
</svg>
