<svg width="19" height="40" viewBox="0 0 19 40" fill="none" xmlns="http://www.w3.org/2000/svg">
    <g clip-path="url(#clip0_6887_1699)">
        <mask id="mask0_6887_1699" style="mask-type:luminance" maskUnits="userSpaceOnUse" x="0" y="0" width="19" height="40">
            <path d="M0.529541 0.436493H18.5795V39.4792H0.529541V0.436493Z" fill="white"/>
        </mask>
        <g mask="url(#mask0_6887_1699)">
            <mask id="mask1_6887_1699" style="mask-type:luminance" maskUnits="userSpaceOnUse" x="0" y="0" width="20" height="40">
                <path d="M7.17459 0.436493H12.3798C14.1413 0.436493 15.8334 1.1359 17.0754 2.3859C18.3223 3.6359 19.0249 5.33233 19.0249 7.0982V32.8869C19.0249 34.6528 18.3223 36.3492 17.0754 37.5992C15.8334 38.8492 14.1413 39.5486 12.3798 39.5486H7.17459C5.41314 39.5486 3.72095 38.8492 2.47407 37.5992C1.2272 36.3492 0.529541 34.6528 0.529541 32.8869V7.0982C0.529541 5.33233 1.2272 3.6359 2.47407 2.3859C3.72095 1.1359 5.41314 0.436493 7.17459 0.436493Z" fill="white"/>
            </mask>
            <g mask="url(#mask1_6887_1699)">
                <path d="M7.17459 0.436493H12.3798C14.1413 0.436493 15.8335 1.1359 17.0754 2.3859C18.3223 3.6359 19.0249 5.33233 19.0249 7.0982V32.8869C19.0249 34.6528 18.3223 36.3492 17.0754 37.5992C15.8335 38.8492 14.1413 39.5486 12.3798 39.5486H7.17459C5.41314 39.5486 3.72095 38.8492 2.47407 37.5992C1.2272 36.3492 0.529541 34.6528 0.529541 32.8869V7.0982C0.529541 5.33233 1.2272 3.6359 2.47407 2.3859C3.72095 1.1359 5.41314 0.436493 7.17459 0.436493Z" stroke="#006555" stroke-width="8"/>
            </g>
        </g>
        <mask id="mask2_6887_1699" style="mask-type:luminance" maskUnits="userSpaceOnUse" x="-1" y="9" width="3" height="">
            <path d="M-0.034668 9.77184H1.00934V16.7163H-0.034668V9.77184Z" fill="white"/>
        </mask>
        <g mask="url(#mask2_6887_1699)">
            <mask id="mask3_6887_1699" style="mask-type:luminance" maskUnits="userSpaceOnUse" x="-1" y="9" width="3" height="8">
                <path d="M0.489811 9.77184C0.628353 9.77184 0.761946 9.8264 0.855957 9.92561C0.954915 10.0248 1.00934 10.1587 1.00934 10.2976V16.1905C1.00934 16.3294 0.954915 16.4583 0.855957 16.5576C0.761946 16.6568 0.628353 16.7113 0.489811 16.7113C0.35127 16.7113 0.217676 16.6568 0.118717 16.5576C0.0197591 16.4583 -0.034668 16.3294 -0.034668 16.1905V10.2976C-0.034668 10.1587 0.0197591 10.0248 0.118717 9.92561C0.217676 9.8264 0.35127 9.77184 0.489811 9.77184Z" fill="white"/>
            </mask>
            <g mask="url(#mask3_6887_1699)">
                <mask id="mask4_6887_1699" style="mask-type:luminance" maskUnits="userSpaceOnUse" x="-2" y="9" width="4" height="8">
                    <path d="M1.26673 9.20636H-1.2666V16.8254H1.26673V9.20636Z" fill="white"/>
                </mask>
                <g mask="url(#mask4_6887_1699)">
                    <mask id="mask5_6887_1699" style="mask-type:luminance" maskUnits="userSpaceOnUse" x="-1" y="9" width="3" height="8">
                        <path d="M-0.034668 9.77184H1.00934V16.7163H-0.034668V9.77184Z" fill="white"/>
                    </mask>
                    <g mask="url(#mask5_6887_1699)">
                        <mask id="mask6_6887_1699" style="mask-type:luminance" maskUnits="userSpaceOnUse" x="-1" y="9" width="3" height="8">
                            <path d="M0.489812 9.77184C0.628354 9.77184 0.761946 9.8264 0.855957 9.92561C0.954915 10.0248 1.00934 10.1587 1.00934 10.2976V16.1905C1.00934 16.3294 0.954915 16.4583 0.855957 16.5575C0.761946 16.6568 0.628354 16.7113 0.489812 16.7113C0.35127 16.7113 0.217676 16.6568 0.118718 16.5575C0.0197594 16.4583 -0.034668 16.3294 -0.034668 16.1905V10.2976C-0.034668 10.1587 0.0197594 10.0248 0.118718 9.92561C0.217676 9.8264 0.35127 9.77184 0.489812 9.77184Z" fill="white"/>
                        </mask>
                        <g mask="url(#mask6_6887_1699)">
                            <path d="M-0.034668 9.77184H1.00934V16.7113H-0.034668V9.77184Z" fill="#006555"/>
                        </g>
                    </g>
                </g>
            </g>
        </g>
        <mask id="mask7_6887_1699" style="mask-type:luminance" maskUnits="userSpaceOnUse" x="8" y="14" width="3" height="14">
            <path d="M8.91113 14.7669H10.6528V27.1131H8.91113V14.7669Z" fill="white"/>
        </mask>
        <g mask="url(#mask7_6887_1699)">
            <mask id="mask8_6887_1699" style="mask-type:luminance" maskUnits="userSpaceOnUse" x="8" y="14" width="3" height="14">
                <path d="M9.78197 14.7669C10.2619 14.7669 10.6528 15.1587 10.6528 15.6399V26.2401C10.6528 26.7212 10.2619 27.1131 9.78197 27.1131C9.30202 27.1131 8.91113 26.7212 8.91113 26.2401V15.6399C8.91113 15.1587 9.30202 14.7669 9.78197 14.7669Z" fill="white"/>
            </mask>
            <g mask="url(#mask8_6887_1699)">
                <mask id="mask9_6887_1699" style="mask-type:luminance" maskUnits="userSpaceOnUse" x="8" y="14" width="4" height="15">
                    <path d="M11.4 14.2857H8.8667V28.254H11.4V14.2857Z" fill="white"/>
                </mask>
                <g mask="url(#mask9_6887_1699)">
                    <mask id="mask10_6887_1699" style="mask-type:luminance" maskUnits="userSpaceOnUse" x="8" y="14" width="3" height="14">
                        <path d="M8.91113 14.7669H10.6528V27.1131H8.91113V14.7669Z" fill="white"/>
                    </mask>
                    <g mask="url(#mask10_6887_1699)">
                        <mask id="mask11_6887_1699" style="mask-type:luminance" maskUnits="userSpaceOnUse" x="8" y="14" width="3" height="14">
                            <path d="M9.78197 14.7669C10.2619 14.7669 10.6528 15.1587 10.6528 15.6399V26.2401C10.6528 26.7212 10.2619 27.1131 9.78197 27.1131C9.30202 27.1131 8.91113 26.7212 8.91113 26.2401V15.6399C8.91113 15.1587 9.30202 14.7669 9.78197 14.7669Z" fill="white"/>
                        </mask>
                        <g mask="url(#mask11_6887_1699)">
                            <path d="M8.91113 14.7669H10.6528V27.1131H8.91113V14.7669Z" fill="#006555"/>
                        </g>
                    </g>
                </g>
            </g>
        </g>
    </g>
    <defs>
        <clipPath id="clip0_6887_1699">
            <rect width="19" height="40" fill="white"/>
        </clipPath>
    </defs>
</svg>
