<svg width="31" height="30" viewBox="0 0 31 30" fill="none" xmlns="http://www.w3.org/2000/svg">
<path fill-rule="evenodd" clip-rule="evenodd" d="M24.6304 21.9643H24.1739V25.2143H24.6304C24.9937 25.2143 25.342 25.361 25.5989 25.6222C25.8557 25.8835 26 26.2377 26 26.6071C26 26.9766 25.8557 27.3308 25.5989 27.592C25.342 27.8533 24.9937 28 24.6304 28H9.33696C8.18672 28 7.0836 27.5353 6.27027 26.7081C5.45693 25.881 5 24.7591 5 23.5893V6.17857C5 5.07035 5.43288 4.00751 6.20341 3.22388C6.97394 2.44024 8.019 2 9.1087 2L21.8913 2C22.981 2 24.0261 2.44024 24.7966 3.22388C25.5671 4.00751 26 5.07035 26 6.17857V20.5714C26 20.9408 25.8557 21.2951 25.5989 21.5563C25.342 21.8175 24.9937 21.9643 24.6304 21.9643ZM9.33696 21.9643H21.4348V25.2143H9.33696C8.91319 25.2143 8.50677 25.0431 8.20712 24.7383C7.90747 24.4336 7.73913 24.0203 7.73913 23.5893C7.73913 23.1583 7.90747 22.745 8.20712 22.4402C8.50677 22.1355 8.91319 21.9643 9.33696 21.9643ZM15.8123 7.25386C15.5805 7.20689 15.3414 7.21279 15.1122 7.27111C14.883 7.32943 14.6693 7.43873 14.4867 7.59113C14.304 7.74353 14.1568 7.93524 14.0557 8.15246C13.9546 8.36967 13.9022 8.60698 13.9022 8.84729C13.9022 9.15513 13.7819 9.45036 13.5679 9.66803C13.3539 9.88571 13.0636 10.008 12.7609 10.008C12.4582 10.008 12.1679 9.88571 11.9538 9.66803C11.7398 9.45036 11.6196 9.15513 11.6196 8.84729C11.6196 8.11686 11.8189 7.40076 12.1953 6.77871C12.5718 6.15666 13.1106 5.65307 13.7518 5.32401C14.393 4.99494 15.1115 4.85331 15.8271 4.91489C16.5428 4.97646 17.2276 5.23882 17.8053 5.67276C18.383 6.1067 18.831 6.69518 19.0994 7.37271C19.3677 8.05024 19.4459 8.79021 19.3253 9.51026C19.2046 10.2303 18.8898 10.9022 18.416 11.4511C17.9421 11.9999 17.3278 12.4043 16.6413 12.6191C16.6338 12.927 16.5064 13.2192 16.287 13.4315C16.0677 13.6437 15.7744 13.7587 15.4717 13.7511C15.169 13.7434 14.8817 13.6138 14.673 13.3908C14.4642 13.1677 14.3512 12.8694 14.3587 12.5616V11.633C14.3587 10.9923 14.87 10.4723 15.5 10.4723C15.8962 10.4715 16.2781 10.3211 16.5714 10.0501C16.8647 9.77913 17.0485 9.407 17.0872 9.00593C17.1259 8.60487 17.0167 8.2035 16.7807 7.87973C16.5448 7.55596 16.2008 7.3329 15.8123 7.25386ZM15.5 18.4989C15.0762 18.4989 14.6698 18.3277 14.3702 18.0229C14.0705 17.7182 13.9022 17.3048 13.9022 16.8739C13.9022 16.4429 14.0705 16.0296 14.3702 15.7248C14.6698 15.4201 15.0762 15.2489 15.5 15.2489C15.9238 15.2489 16.3302 15.4201 16.6298 15.7248C16.9295 16.0296 17.0978 16.4429 17.0978 16.8739C17.0978 17.3048 16.9295 17.7182 16.6298 18.0229C16.3302 18.3277 15.9238 18.4989 15.5 18.4989Z" fill="#016553"/>
</svg>
