<svg width="20" height="20" viewBox="0 0 20 20" fill="none" xmlns="http://www.w3.org/2000/svg">
<path fill-rule="evenodd" clip-rule="evenodd" d="M1.79096 9.70222C1.79096 14.1667 5.02789 17.2086 8.66376 17.8378C8.76266 17.855 8.85722 17.8914 8.94204 17.9451C9.02685 17.9988 9.10026 18.0686 9.15807 18.1507C9.21589 18.2328 9.25697 18.3254 9.27899 18.4233C9.301 18.5213 9.3035 18.6226 9.28636 18.7215C9.26922 18.8204 9.23276 18.9149 9.17908 18.9998C9.12539 19.0846 9.05553 19.158 8.97347 19.2158C8.89142 19.2736 8.79878 19.3147 8.70084 19.3367C8.60291 19.3587 8.5016 19.3612 8.40269 19.3441C4.13323 18.6049 0.262695 15.0057 0.262695 9.70222C0.262695 7.44795 1.28789 5.67622 2.48469 4.32982C3.34269 3.36475 4.32389 2.58008 5.11296 1.98022H2.7135C2.519 1.98022 2.33248 1.90295 2.19495 1.76543C2.05742 1.6279 1.98016 1.44138 1.98016 1.24688C1.98016 1.05239 2.05742 0.865865 2.19495 0.728338C2.33248 0.590812 2.519 0.51355 2.7135 0.51355H7.11349C7.30799 0.51355 7.49451 0.590812 7.63204 0.728338C7.76957 0.865865 7.84683 1.05239 7.84683 1.24688V5.64688C7.84683 5.84138 7.76957 6.0279 7.63204 6.16543C7.49451 6.30295 7.30799 6.38022 7.11349 6.38022C6.919 6.38022 6.73248 6.30295 6.59495 6.16543C6.45742 6.0279 6.38016 5.84138 6.38016 5.64688V2.93942L6.37869 2.94235C5.53976 3.57302 4.51603 4.34595 3.62869 5.34475C2.58003 6.52395 1.79096 7.95102 1.79096 9.70222ZM18.0827 10.2962C18.0827 5.87862 14.9147 2.85582 11.3258 2.18115C11.2257 2.16418 11.1301 2.12746 11.0444 2.07313C10.9587 2.01879 10.8847 1.94795 10.8267 1.86471C10.7687 1.78147 10.7278 1.68752 10.7065 1.58832C10.6852 1.48913 10.6838 1.38668 10.7025 1.28696C10.7212 1.18724 10.7596 1.09224 10.8154 1.00751C10.8712 0.922775 10.9433 0.850002 11.0276 0.793436C11.1118 0.736869 11.2064 0.697642 11.306 0.678043C11.4055 0.658444 11.508 0.658866 11.6074 0.679283C15.8226 1.47128 19.611 5.04995 19.611 10.2962C19.611 12.5505 18.5858 14.3208 17.389 15.6686C16.531 16.6337 15.5498 17.4184 14.7607 18.0182H17.1602C17.3547 18.0182 17.5412 18.0955 17.6787 18.233C17.8162 18.3705 17.8935 18.5571 17.8935 18.7516C17.8935 18.946 17.8162 19.1326 17.6787 19.2701C17.5412 19.4076 17.3547 19.4849 17.1602 19.4849H12.7602C12.5657 19.4849 12.3791 19.4076 12.2416 19.2701C12.1041 19.1326 12.0268 18.946 12.0268 18.7516V14.3516C12.0268 14.1571 12.1041 13.9705 12.2416 13.833C12.3791 13.6955 12.5657 13.6182 12.7602 13.6182C12.9547 13.6182 13.1412 13.6955 13.2787 13.833C13.4162 13.9705 13.4935 14.1571 13.4935 14.3516V17.0576H13.4964C14.3339 16.424 15.3591 15.6525 16.245 14.6522C17.2936 13.4745 18.0827 12.0489 18.0827 10.2962Z" fill="#4DAEA7"/>
</svg>
