<svg width="18" height="20" viewBox="0 0 18 20" fill="none" xmlns="http://www.w3.org/2000/svg">
    <path d="M11.1923 0.304895C11.5885 0.0923241 12.0814 0.242122 12.2934 0.639478L12.7798 1.55153L12.7995 1.58852C12.9468 1.86458 13.0879 2.12905 13.1733 2.34141C13.2178 2.45205 13.273 2.60904 13.2891 2.78413C13.3065 2.97222 13.2838 3.25859 13.0743 3.51302C12.8554 3.77887 12.5652 3.84712 12.3876 3.86262C12.2158 3.8776 12.0515 3.8535 11.9311 3.83048C11.6976 3.78586 11.3959 3.69597 11.0718 3.59941L11.0325 3.58772C10.391 3.39668 9.70871 3.29351 9.00001 3.29351C5.15794 3.29351 2.08533 6.31899 2.08533 9.99992C2.08533 11.2179 2.41939 12.3588 3.00449 13.3433C3.23453 13.7304 3.10818 14.2312 2.72226 14.462C2.33634 14.6927 1.83701 14.566 1.60696 14.1789C0.876965 12.9506 0.458344 11.5222 0.458344 9.99992C0.458344 5.37187 4.30577 1.6616 9.00001 1.6616C9.45864 1.6616 9.90925 1.69695 10.349 1.76511L10.7852 0.833252C10.881 0.613214 10.9794 0.419174 11.1923 0.304895Z" fill="#4DAEA7"/>
    <path d="M15.2778 5.53785C15.6637 5.30711 16.163 5.43386 16.3931 5.82094C17.1231 7.04929 17.5417 8.47759 17.5417 9.99992C17.5417 14.628 13.6942 18.3382 9.00001 18.3382C8.57574 18.3382 8.15833 18.308 7.75001 18.2495L7.21482 19.1666C7.12764 19.3604 7.02066 19.5807 6.80769 19.6949C6.41153 19.9075 5.91858 19.7577 5.70665 19.3604L5.20049 18.4114C5.05319 18.1353 4.91208 17.8708 4.82668 17.6584C4.78218 17.5478 4.727 17.3908 4.71086 17.2157C4.69352 17.0276 4.7162 16.7412 4.92572 16.4868C5.14465 16.221 5.4348 16.1527 5.61246 16.1372C5.78426 16.1222 5.94846 16.1463 6.0689 16.1693C6.30244 16.214 6.6042 16.3039 6.92832 16.4004L6.9675 16.4121C7.60903 16.6032 8.29131 16.7063 9.00001 16.7063C12.8421 16.7063 15.9147 13.6808 15.9147 9.99992C15.9147 8.78195 15.5806 7.64107 14.9955 6.65653C14.7655 6.26944 14.8918 5.7686 15.2778 5.53785Z" fill="#4DAEA7"/>
</svg>
