<svg xmlns="http://www.w3.org/2000/svg" xmlns:xlink="http://www.w3.org/1999/xlink" width="60" zoomAndPan="magnify" viewBox="0 0 45 44.999999" height="60" preserveAspectRatio="xMidYMid meet" version="1.2"><defs><clipPath id="35bbcaeb0d"><path d="M 5.589844 2.78125 L 39.339844 2.78125 L 39.339844 42.53125 L 5.589844 42.53125 Z M 5.589844 2.78125 "/></clipPath></defs><g id="8cc6ce9588"><g clip-rule="nonzero" clip-path="url(#35bbcaeb0d)"><path style=" stroke:none;fill-rule:nonzero;fill:#ffffff;fill-opacity:1;" d="M 37.992188 8.050781 L 23.488281 3.015625 C 22.808594 2.78125 22.125 2.78125 21.445312 3.015625 L 6.941406 8.050781 C 6.535156 8.191406 6.210938 8.4375 5.964844 8.789062 C 5.71875 9.140625 5.597656 9.53125 5.601562 9.960938 C 5.667969 15.320312 6.933594 34.128906 21.128906 41.699219 C 21.546875 41.921875 21.992188 42.03125 22.464844 42.03125 C 22.941406 42.03125 23.386719 41.921875 23.804688 41.699219 C 38 34.128906 39.265625 15.320312 39.332031 9.960938 C 39.335938 9.53125 39.214844 9.140625 38.96875 8.789062 C 38.722656 8.4375 38.398438 8.191406 37.992188 8.050781 Z M 31.402344 18.890625 L 22.734375 27.558594 C 22.542969 27.742188 22.324219 27.882812 22.074219 27.984375 C 21.828125 28.082031 21.570312 28.132812 21.304688 28.132812 C 21.039062 28.132812 20.78125 28.082031 20.535156 27.984375 C 20.289062 27.882812 20.066406 27.742188 19.875 27.558594 L 14.921875 22.605469 C 14.738281 22.417969 14.597656 22.207031 14.5 21.96875 C 14.402344 21.726562 14.355469 21.476562 14.355469 21.21875 C 14.359375 20.960938 14.410156 20.710938 14.507812 20.472656 C 14.609375 20.234375 14.75 20.023438 14.933594 19.839844 C 15.117188 19.65625 15.328125 19.515625 15.566406 19.414062 C 15.804688 19.316406 16.054688 19.265625 16.3125 19.265625 C 16.570312 19.265625 16.820312 19.3125 17.0625 19.410156 C 17.300781 19.507812 17.511719 19.648438 17.695312 19.828125 L 21.304688 23.4375 L 28.628906 16.113281 C 28.8125 15.929688 29.023438 15.789062 29.265625 15.6875 C 29.503906 15.589844 29.753906 15.539062 30.015625 15.539062 C 30.277344 15.539062 30.527344 15.589844 30.765625 15.691406 C 31.007812 15.789062 31.21875 15.929688 31.402344 16.113281 C 31.585938 16.300781 31.726562 16.511719 31.828125 16.75 C 31.925781 16.992188 31.976562 17.242188 31.976562 17.5 C 31.976562 17.761719 31.929688 18.011719 31.828125 18.253906 C 31.730469 18.492188 31.589844 18.707031 31.40625 18.890625 Z M 31.402344 18.890625 "/></g></g></svg>