<svg width="26" height="28" viewBox="0 0 26 28" fill="none" xmlns="http://www.w3.org/2000/svg">
    <path d="M14.875 5.62107C14.0832 5.37966 13.2436 5.25 12.375 5.25C7.82022 5.25 4.06235 8.81528 3.82296 13.3638C3.73112 15.1088 3.8367 16.9662 2.27767 18.1355C1.55205 18.6797 1.125 19.5338 1.125 20.4408C1.125 21.6885 2.10225 22.75 3.375 22.75H21.375C22.6477 22.75 23.625 21.6885 23.625 20.4408C23.625 19.5338 23.198 18.6797 22.4723 18.1355C21.25 16.75 21.75 15.1088 21.75 13.3638C21.75 9.3275 18.625 5.97925 14.875 5.62107Z"
        fill="#FFBC00" stroke="#FFBC00" stroke-width="1.5" stroke-linecap="round" stroke-linejoin="round"/>
    <path d="M12.375 1.5C11.3395 1.5 10.5 1.87072 10.5 2.90625C10.5 3.94178 11.3395 5.25 12.375 5.25C13.4105 5.25 14.25 3.94178 14.25 2.90625C14.25 1.87072 13.4105 1.5 12.375 1.5Z"
        fill="#FFBC00" stroke="#FFBC00" stroke-width="1.5"/>
    <path d="M16.125 22.75C16.125 24.8211 14.4461 26.5 12.375 26.5C10.3039 26.5 8.625 24.8211 8.625 22.75"
        fill="#FFBC00" stroke="#FFBC00" stroke-width="1.5" stroke-linecap="round" stroke-linejoin="round"/>
</svg>
